<?xml version="1.0" encoding="UTF-8"?>
<svg width="209px" height="66px" viewBox="0 0 209 66" version="1.1" xmlns="http://www.w3.org/2000/svg" xmlns:xlink="http://www.w3.org/1999/xlink">
    <title>go-for-eat</title>
    <g id="go-for-eat" stroke="none" stroke-width="1" fill="none" fill-rule="evenodd">
        <g id="Prepaid-Final-03" transform="translate(3.000000, 15.000000)" fill-rule="nonzero">
            <g id="Up_1_" transform="translate(0.000000, 0.000000)">
                <rect id="Rectangle" fill="#FF9E18" x="1.81632743e-15" y="-7.9464325e-16" width="34.781409" height="34.781409"></rect>
                <g id="Group" transform="translate(6.026623, 7.306795)" fill="#FFFFFF">
                    <path d="M14.8283159,3.53171998 L14.8283159,5.16772228 C15.7260722,4.5419514 16.7853837,4.1902109 17.9489903,4.1902109 C21.0778447,4.1902109 23.6156933,6.83030962 23.6156933,10.0900442 C23.6156933,13.3477338 21.0778447,15.9878325 17.9489903,15.9878325 C16.7915187,15.9878325 15.7158471,15.625867 14.8201359,15.0062311 L14.8201359,15.0062311 L14.8201359,18.9387717 L12.043022,19.5747676 L12.043022,4.20657093 L14.8283159,3.53171998 Z M10.670825,-1.42880031e-12 L10.670825,11.1105007 C10.670825,13.8242195 8.61559714,15.9878325 5.24747739,15.9878325 C2.66872876,15.9878325 1.54735889e-12,14.5215655 1.54735889e-12,10.6953651 L1.54735889e-12,10.6953651 L1.54735889e-12,0.635995896 L2.88549907,-1.42880031e-12 L2.88549907,10.2781845 C2.88549907,11.5910763 3.12680941,13.2086736 5.37835758,13.2086736 C7.39064041,13.2086736 7.78328097,11.8323867 7.78328097,10.0389191 L7.78328097,10.0389191 L7.78328097,0.635995896 L10.670825,-1.42880031e-12 Z M17.771075,6.71374446 C15.9121674,6.71374446 14.5563305,8.26794665 14.5563305,10.0818642 C14.5563305,11.8978268 15.9121674,13.449984 17.771075,13.449984 C19.6299827,13.449984 20.9858196,11.8978268 20.9858196,10.0818642 C20.9858196,8.26590165 19.6299827,6.71374446 17.771075,6.71374446 Z" id="Combined-Shape"></path>
                </g>
            </g>
            <g id="Group" transform="translate(44.701718, 5.114552)">
                <path d="M18.7731265,5.21680235 L17.9040002,8.97142764 L15.1923264,8.97142764 C16.304808,10.2209244 16.9653439,11.5072312 16.9653439,13.2802487 C16.9653439,15.7485672 15.4356818,17.5563497 13.2107186,18.460241 C15.6790371,19.6402077 17.2761843,21.4479902 17.2761843,24.2639592 C17.2761843,29.061536 12.6524328,31.216969 8.93461759,31.216969 C4.90187191,31.216969 2.33130328,30.2087826 5.96305647e-13,27.670934 L2.71167382,24.854965 C4.58898647,26.8018078 5.70146803,27.5339188 8.48062695,27.5339188 C10.2536444,27.5339188 12.6892429,26.4562023 12.6892429,24.0901339 C12.6892429,21.3805051 10.5685749,20.1269184 7.99596127,20.1269184 C6.46629911,20.1269184 5.00616705,20.6831591 3.71986024,21.4132252 L4.44992627,18.9449067 C1.42536701,17.6585999 0.280165395,16.0941727 0.280165395,13.1391435 C0.280165395,9.00414769 3.85892044,6.18817872 8.34361176,6.18817872 C9.35179818,6.18817872 10.2556895,6.22498877 10.9857555,6.29247387 C11.7137765,6.32928392 12.3068273,6.39881402 12.6197128,6.39881402 C14.3579652,6.39881402 16.7915187,5.84257323 18.7731265,5.21680235 Z M29.073806,6.18817872 C34.2885633,6.18817872 38.8775498,10.2556895 38.8775498,15.5747419 C38.8775498,20.8937944 34.2885633,24.9592602 29.073806,24.9592602 C23.8590486,24.9592602 19.2700622,20.8937944 19.2700622,15.5747419 C19.2700622,10.2556895 23.8590486,6.18817872 29.073806,6.18817872 Z M71.3194755,6.18817872 C76.5342328,6.18817872 81.1232193,10.2556895 81.1232193,15.5747419 C81.1232193,20.8937944 76.5342328,24.9592602 71.3194755,24.9592602 C66.1047181,24.9592602 61.5177767,20.8937944 61.5177767,15.5747419 C61.5177767,10.2556895 66.1047181,6.18817872 71.3194755,6.18817872 Z M61.2662413,-1.00942437e-12 L62.8306685,4.10227578 C61.8920122,4.06546573 60.9165458,4.03274568 59.9778895,4.03274568 C57.9267516,4.03274568 56.7099749,4.58694146 56.6077248,6.7444195 L61.0903711,6.7444195 L61.0903711,10.5665299 L56.6077248,10.5665299 L56.6077248,24.4030194 L52.1925635,24.6811398 L52.1925635,10.5665299 L49.4134046,10.5665299 L50.386826,6.7444195 L52.1946085,6.7444195 C52.3009487,4.23929097 53.4809154,2.53580357 55.0801076,1.39060196 C56.8183601,0.139060196 58.6609077,-1.00942437e-12 61.2662413,-1.00942437e-12 Z M94.4423231,6.18817872 L92.9126609,10.8814603 C89.5404512,10.8814603 88.0455541,12.8630681 88.0455541,15.9223924 L88.0455541,24.4030194 L83.6303928,24.6811398 L83.6303928,6.7444195 L87.8021987,6.32723892 L87.8021987,9.52562342 L87.8717288,9.52562342 C89.401391,6.77918455 91.3829988,6.22498877 94.4423231,6.18817872 Z M29.073806,10.2209244 C26.0840118,10.2209244 23.441868,12.5501827 23.441868,15.5747419 C23.441868,18.5972562 26.0840118,20.9265145 29.073806,20.9265145 C32.0636002,20.9265145 34.7057439,18.5972562 34.7057439,15.5747419 C34.7057439,12.5501827 32.0636002,10.2209244 29.073806,10.2209244 Z M71.3194755,10.2209244 C68.3296813,10.2209244 65.6875376,12.5501827 65.6875376,15.5747419 C65.6875376,18.5972562 68.3296813,20.9265145 71.3194755,20.9265145 C74.3092697,20.9265145 76.9514134,18.5972562 76.9514134,15.5747419 C76.9514134,12.5501827 74.3092697,10.2209244 71.3194755,10.2209244 Z M8.62173215,9.49085837 C6.60740431,9.49085837 4.69328161,11.0552856 4.69328161,13.1391435 C4.69328161,15.2598115 6.60740431,16.8242387 8.62173215,16.8242387 C10.638105,16.8242387 12.5501827,15.2598115 12.5501827,13.1391435 C12.5501827,11.0532406 10.638105,9.49085837 8.62173215,9.49085837 Z" id="Combined-Shape" fill="#2C3334"></path>
                <path d="M132.487557,-5.67564173e-13 L144.933444,24.2291941 L140.031572,24.9572152 L137.180838,18.9101416 L128.03763,18.9101416 L125.258471,24.9572152 L120.42613,24.2291941 L132.418027,-5.67564173e-13 L132.487557,-5.67564173e-13 Z M159.180979,0.556240784 L159.180979,4.97140201 L153.236156,4.97140201 L153.236156,24.4030194 L148.649214,24.6811398 L148.649214,4.97140201 L142.14815,4.97140201 L143.260632,0.556240784 L159.180979,0.556240784 Z M118.391352,0.556240784 L119.156183,4.97140201 L110.15408,4.97140201 L110.15408,9.73421372 L117.38521,9.73421372 L117.38521,14.1473299 L110.15408,14.1473299 L110.15408,19.9858132 L120.268664,19.9858132 L118.808532,24.4009744 L105.565094,24.4009744 L105.565094,0.556240784 L118.391352,0.556240784 Z M132.454837,8.41314185 L129.845413,14.879441 L135.199231,14.879441 L132.454837,8.41314185 Z" id="Combined-Shape" fill="#FF9E18"></path>
            </g>
        </g>
    </g>
</svg>