<svg width="100px" height="100px" viewBox="0 0 100 100" version="1.1" xmlns="http://www.w3.org/2000/svg" xmlns:xlink="http://www.w3.org/1999/xlink">
    <title>Group 20</title>
    <g id="Symbols" stroke="none" stroke-width="1" fill="none" fill-rule="evenodd">
        <g id="HEADER/dark/biz" transform="translate(-22.000000, -22.000000)">
            <g id="HEADER" transform="translate(22.000000, 0.000000)">
                <g id="Group-19" transform="translate(0.000000, 22.000422)">
                    <polygon id="Fill-1" fill="#FF9018" points="0 99.5983122 99.5978903 99.5983122 99.5978903 0 0 0"></polygon>
                    <g id="Group-18" transform="translate(18.987342, 19.429536)" fill="#FFFFFF">
                        <path d="M20.334135,26.1348101 C20.334135,30.7647679 19.3181013,34.32173 14.1240084,34.32173 C8.30839662,34.32173 7.68729958,30.1432489 7.68729958,26.7563291 L7.68729958,0.21371308 L0.234135021,1.85590717 L0.234135021,27.8293249 C0.234135021,37.7090717 7.12274262,41.4921941 13.7847679,41.4921941 C22.4813924,41.4921941 27.7872996,35.9031646 27.7872996,28.9010549 L27.7872996,0.21371308 L20.334135,1.85590717 L20.334135,26.1348101 Z" id="Fill-2"></path>
                        <path d="M46.1244726,34.943038 C41.3265823,34.943038 37.8253165,30.9345992 37.8253165,26.2476793 C37.8253165,21.5616034 41.3265823,17.5518987 46.1244726,17.5518987 C50.9240506,17.5518987 54.4253165,21.5616034 54.4253165,26.2476793 C54.4253165,30.9345992 50.9240506,34.943038 46.1244726,34.943038 M46.5839662,11.0320675 C43.5814346,11.0320675 40.8447257,11.9392405 38.5232068,13.5544304 L38.5232068,9.33291139 L31.3329114,11.07173 L31.3329114,50.7523207 L38.5033755,49.1084388 L38.5033755,38.9527426 C40.8177215,40.5527426 43.5962025,41.4873418 46.5839662,41.4873418 C54.664135,41.4873418 61.2147679,34.6696203 61.2147679,26.2599156 C61.2147679,17.8493671 54.664135,11.0320675 46.5839662,11.0320675" id="Fill-4"></path>
                        <polygon id="Fill-6" points="15.258903 58.1732911 17.0209283 57.9589451 17.0209283 67.3306751 15.258903 67.4378481 15.258903 63.4462869 11.5475105 63.4462869 11.5475105 67.3306751 9.78548523 67.4378481 9.78548523 58.1732911 11.5475105 57.9589451 11.5475105 61.7509283 15.258903 61.7509283"></polygon>
                        <polygon id="Fill-8" points="18.7302532 67.3307173 18.7302532 58.1733333 23.6564135 58.1733333 23.9500844 59.8678481 20.4927004 59.8678481 20.4927004 61.696962 23.2694937 61.696962 23.2694937 63.3927426 20.4927004 63.3927426 20.4927004 65.6349367 24.3775105 65.6349367 23.8167511 67.3307173"></polygon>
                        <polygon id="Fill-10" points="25.4326582 67.3307173 25.4326582 58.1733333 27.1951055 57.9589873 27.1951055 65.6349367 30.5322363 65.6349367 30.09173 67.3307173"></polygon>
                        <polygon id="Fill-12" points="31.3602532 67.3307173 31.3602532 58.1733333 33.1227004 57.9589873 33.1227004 65.6349367 36.4602532 65.6349367 36.0193249 67.3307173"></polygon>
                        <path d="M39.75827,63.6729114 L41.8139662,63.6729114 L40.7591139,61.190211 L39.75827,63.6729114 Z M36.1405485,67.2640506 L40.7460338,57.9589873 L40.7721941,57.9589873 L45.551519,67.2640506 L43.6692405,67.5442194 L42.5751477,65.2214346 L39.0637553,65.2214346 L37.9958228,67.5442194 L36.1405485,67.2640506 Z" id="Fill-14"></path>
                        <path d="M46.7940506,64.8608861 C47.2480591,65.3680591 47.5687342,65.8486498 48.5564979,65.8486498 C49.1835021,65.8486498 49.7311814,65.3549789 49.7311814,64.7942194 C49.7311814,62.9790295 45.7396203,64.0064557 45.7396203,60.7625738 C45.7396203,59.0136287 47.0480591,57.9591983 48.862827,57.9591983 C49.7712658,57.9591983 50.8792827,58.4667932 51.4265401,59.2005485 L50.3320253,60.4824051 C49.9041772,60.0288186 49.2501688,59.654557 48.7564979,59.654557 C48.1425738,59.654557 47.5818143,59.9216456 47.5818143,60.7625738 C47.5818143,62.3245992 51.5733755,61.2035021 51.5733755,64.8081435 C51.5733755,66.4764979 50.1851899,67.5440084 48.4624051,67.5440084 C47.3147257,67.5440084 46.3535443,67.0638397 45.5797046,66.1165823 L46.7940506,64.8608861 Z" id="Fill-16"></path>
                    </g>
                </g>
            </g>
        </g>
    </g>
</svg>