<?xml version="1.0" encoding="UTF-8"?>
<svg width="200px" height="105px" viewBox="0 0 200 105" version="1.1" xmlns="http://www.w3.org/2000/svg" xmlns:xlink="http://www.w3.org/1999/xlink">
    <title>logo-1</title>
    <g id="logo-1" stroke="none" stroke-width="1" fill="none" fill-rule="evenodd">
        <g id="tsakiris-mallas" transform="translate(11.000000, 25.000000)" fill="#212121" fill-rule="nonzero">
            <path d="M73.2068375,8.23759329 L81.4658451,0.00303242897 L82.7188628,1.25845802 L79.2643519,4.71542705 L84.487027,9.95394809 L85.4309564,12.2055266 L83.1961306,11.2912493 L77.9340623,6.04666337 L74.481067,9.49908375 L73.2068375,8.23759329 Z M96.6853884,1.25845802 L97.9565879,0 L106.200444,8.23759329 L104.920154,9.49605132 L101.470189,6.0481796 L96.2126662,11.2867006 L93.9763248,12.2070428 L94.9187397,9.9524319 L100.139899,4.71391083 L96.6853884,1.25845802 Z M84.4203607,1.16596894 L89.7021258,6.43329806 L94.9717697,1.16445272 L96.7156915,2.90658317 L92.0339204,14.1948 L96.4656938,12.4314426 L103.383806,9.57944309 L105.021668,11.2139223 L99.7535396,16.4873163 L105.020153,21.7607103 L103.280777,23.5058732 L91.9914966,18.8086407 L96.6081165,30.1802493 L94.9702542,31.8056313 L89.7021258,26.5383021 L84.4279364,31.8025988 L82.7991648,30.1817655 L87.4097245,18.8086407 L76.1265049,23.5058732 L74.3765226,21.7500968 L79.6522271,16.4827677 L74.3765226,11.2093737 L76.0189305,9.5779269 L87.3688157,14.1963162 L82.6870447,2.9096156 L84.4203607,1.16596894 Z M87.0566979,9.08515717 L88.3475938,7.78272895 L85.0339911,4.2393357 L87.0566979,9.08515717 Z M92.3445232,9.08515717 L94.3687451,4.23781948 L91.0566574,7.78424514 L92.3445232,9.08515717 Z M89.6960652,15.4987444 L91.5536221,10.9864902 L89.7021258,9.13974093 L87.8460835,10.9986199 L89.6960652,15.4987444 Z M80.9022142,15.2303745 L82.1976556,13.9476571 L77.3340688,11.8931864 L80.9022142,15.2303745 Z M98.4974914,15.2349231 L102.079274,11.890154 L97.2050805,13.9491732 L98.4974914,15.2349231 Z M82.2643219,16.6040648 L84.0779399,18.400779 L88.4521382,16.6040648 L88.440017,16.5009622 L84.1203637,14.7254751 L82.2643219,16.6040648 Z M95.3278263,18.4022952 L97.1459899,16.5873865 L95.2854025,14.7254751 L90.8945379,16.5267379 L95.3278263,18.4022952 Z M89.7006103,24.0319996 L91.5187739,22.2201233 L89.7021258,17.7776149 L87.8854773,22.2246719 L89.7006103,24.0319996 Z M82.2870488,19.1270457 L81.0022135,17.8412958 L77.4567945,21.1618055 L82.2870488,19.1270457 Z M101.892912,21.1163191 L98.4035532,17.8367472 L97.1111418,19.1255295 L101.892912,21.1163191 Z M85.1294443,28.8247536 L88.4551683,25.2828765 L87.1627574,23.9819645 L85.1294443,28.8247536 Z M90.953628,25.2874252 L94.2672312,28.8141401 L92.2399787,23.9880294 L90.953628,25.2874252 Z M93.9748098,20.7675898 L96.2899381,21.7546454 L101.465643,26.918872 L104.826215,23.5452947 L106.194384,24.7400717 L97.9535578,32.9731164 L96.6808433,31.7101097 L100.130809,28.2592056 L94.9126791,23.0131034 L93.9748098,20.7675898 Z M83.108253,21.7500968 L85.4233808,20.769106 L84.4385426,23.0783007 L79.2688975,28.2637542 L82.7234084,31.7101097 L81.4476633,32.977665 L73.2068375,24.7370393 L74.4840971,23.4755489 L77.9340623,26.9234206 L83.108253,21.7500968 Z M16.837709,42.5555919 C19.0922317,42.0976952 21.4831167,42.5844 23.4694603,43.7124636 C23.2270385,44.2022009 22.9876469,44.6919382 22.7482554,45.1831917 C21.086151,44.1370036 19.0134446,43.6715258 17.0846762,44.1248739 C16.2619572,44.3462412 15.2877246,44.8647866 15.2089375,45.8169693 C15.1286353,46.5311063 15.7225687,47.1163651 16.3574108,47.3256027 C18.3589058,48.0169965 20.5437322,47.6303618 22.5558331,48.2777854 C23.4724906,48.5598013 24.3209668,49.1132196 24.8633856,49.915297 C25.7042862,51.1555606 25.5891359,52.9401449 24.6285395,54.0848868 C23.8512746,55.018875 22.7043165,55.584423 21.5285708,55.8239849 C18.5225405,56.3743706 15.2892398,55.625361 12.8968397,53.6982522 C13.2210788,53.2206448 13.5377422,52.7384884 13.868042,52.2654296 C15.5316615,53.5542116 17.5649744,54.4578755 19.6952559,54.4745539 C20.9013043,54.4578755 22.2012913,54.1728275 23.0694643,53.2752282 C23.7633967,52.5792859 23.9073346,51.3496359 23.2512807,50.5809153 C22.6179537,49.8349377 21.608873,49.5847623 20.6755491,49.4937894 C19.1043528,49.3815895 17.5149749,49.3042626 15.9831721,48.903982 C14.880153,48.6234823 13.8392544,47.8244373 13.5513785,46.684244 C13.3922892,45.8836827 13.490773,45.0057946 13.9634955,44.323498 C14.6195495,43.3637342 15.7240839,42.79667 16.837709,42.5555919 Z M82.6673483,42.5464947 C84.9082347,42.1052762 87.2809381,42.5904649 89.2566756,43.7094312 C89.0203142,44.2006847 88.7824378,44.6919382 88.5400164,45.1801592 C86.9551836,44.1900712 85.0203548,43.729142 83.1673431,44.0551281 C82.4173507,44.2158468 81.6264496,44.535768 81.1931206,45.2029024 C80.7961547,45.8154531 81.0219104,46.691825 81.6400858,47.0693625 C82.4825014,47.5909403 83.5097639,47.6409753 84.4673301,47.7668211 C86.0476173,47.879021 87.7082065,47.8850859 89.1597068,48.6098364 C90.3263619,49.1905465 91.2339281,50.3974533 91.2051406,51.7362705 C91.2581706,52.7748778 90.8051447,53.8074194 90.0324254,54.4942649 C88.8097103,55.6192959 87.0870005,56.0317061 85.4612595,55.9801548 C83.0234049,56.0620303 80.596157,55.2068856 78.6870853,53.6997682 C79.0082942,53.2206448 79.3295031,52.743037 79.6522271,52.2654296 C81.3158463,53.5420823 83.3340081,54.4518109 85.4582289,54.4745539 C86.6627622,54.4624241 87.9627492,54.1834407 88.8384979,53.2979717 C89.4248557,52.7233265 89.6157627,51.795403 89.3187963,51.0357796 C88.9657692,50.2215724 88.0930511,49.7924837 87.2688169,49.6166028 C86.167313,49.4013003 85.0400517,49.4422381 83.9309717,49.2845518 C82.6021971,49.1101872 81.1203942,48.9752441 80.1097981,47.9881884 C79.1219293,47.079976 78.997688,45.4652076 79.729499,44.3629196 C80.3855532,43.3652505 81.5249352,42.789089 82.6673483,42.5464947 Z M168.175577,42.8042511 C170.631613,41.9491061 173.404312,42.4600704 175.637623,43.7048825 C175.410352,44.2022009 175.1649,44.6919382 174.922478,45.1816754 C173.358858,44.1976522 171.451301,43.7443041 169.619501,44.0414821 C168.904357,44.1855225 168.166486,44.4675384 167.689218,45.0452161 C167.314979,45.4940156 167.263465,46.2020878 167.622552,46.6751467 C167.933155,47.1254624 168.469513,47.3286351 168.977084,47.4666107 C170.961912,47.9866722 173.089163,47.6500726 175.030053,48.380888 C176.192162,48.8069442 177.227,49.7530621 177.510331,50.990293 C177.675481,51.9318623 177.590633,52.9644045 177.036093,53.7710305 C176.148223,55.0871046 174.572482,55.7557552 173.040679,55.9361847 C171.478574,56.0574817 169.880105,55.9816714 168.38315,55.4813204 C167.183162,55.0962019 166.072568,54.4684893 165.075608,53.7028008 C165.392271,53.2191283 165.716511,52.7415209 166.04075,52.262397 C167.363464,53.2721961 168.88466,54.0697249 170.537674,54.3456757 C171.799783,54.5822051 173.16189,54.5124594 174.328545,53.9423627 C175.125507,53.5557281 175.837621,52.805202 175.840651,51.8712138 C175.917923,51.0494254 175.360353,50.3140614 174.649754,49.9683646 C173.443706,49.342168 172.04372,49.5135002 170.742218,49.3270058 C169.404352,49.1617384 167.945276,49.0874439 166.818015,48.2641395 C165.905903,47.6197483 165.442271,46.4128416 165.719541,45.3257158 C165.968023,44.0915172 167.04983,43.2257587 168.175577,42.8042511 Z M0.00303027247,42.6662756 L12.5422978,42.6708243 L12.545328,44.2097819 L7.08932242,44.2158468 L7.08932242,55.6602339 L5.42267257,55.6617499 L5.41964231,44.2112981 L0,44.2143306 L0.00303027247,42.6662756 Z M33.2920885,42.6677918 L39.7253569,55.6572013 L37.9268902,55.6617499 L36.1647868,52.1759729 L29.0587979,52.1744569 L27.3451788,55.6602339 L25.5664088,55.6556853 L31.9208902,42.669308 L33.2920885,42.6677918 Z M29.8072751,50.6233694 L35.4390365,50.629434 L32.6163378,44.9678892 L29.8072751,50.6233694 Z M41.1541304,42.6495972 L42.8207803,42.6511135 L42.8192651,49.073798 L50.1904029,42.6495972 L52.3631083,42.6556621 L47.1252823,47.2725352 L53.158555,55.6602339 L51.1555449,55.6647825 L45.9252944,48.4354717 L42.8253257,51.0357796 L42.8207803,55.6602339 L41.1541304,55.6617499 L41.1541304,42.6495972 Z M55.0903537,42.6010784 L56.7797304,42.6025946 L56.7782154,55.6602339 L55.0933837,55.6617499 L55.0903537,42.6010784 Z M67.5841671,42.6677918 C68.7674884,42.6723404 70.0356574,43.0407806 70.8098922,43.9899308 C71.5462483,44.8632704 71.6386715,46.0868555 71.4614007,47.172465 C71.176555,48.6022553 69.932628,49.7530621 68.4947639,49.9622997 C69.2078881,51.2298549 70.2846445,53.12765 71.7250341,55.6556853 L69.8917192,55.6632659 L66.6538734,50.0077861 L61.6645297,50.0093023 L61.6630146,55.6617499 L60.0206068,55.6602339 L60.0221218,42.6708243 C63.3826939,42.6688026 65.903376,42.6677918 67.5841671,42.6677918 Z M61.6645297,44.2143306 L61.6645297,48.4294069 C64.22511,48.428396 66.1457975,48.428396 67.4265926,48.4294069 C68.0781012,48.4415366 68.7796092,48.2944638 69.2674832,47.8335346 C69.8795985,47.2179515 69.9250523,46.2217986 69.6538428,45.4379157 C69.3432401,44.6115788 68.4280977,44.2112981 67.5932577,44.2188792 C66.2760994,44.2118035 64.2998564,44.2102874 61.6645297,44.2143306 Z M74.4537945,55.6602339 L74.4522795,42.6010784 L76.1446868,42.6010784 L76.1431712,55.6602339 L74.4537945,55.6602339 Z M99.1626362,42.6708243 L100.698985,42.6708243 L105.908023,50.5687855 L111.151909,42.6708243 L112.667046,42.6708243 L112.668561,55.6602339 L111.026153,55.6617499 L111.030699,45.5849885 L105.908023,53.2342907 L100.786862,45.5880209 L100.791408,55.6617499 L99.1611212,55.6602339 L99.1626362,42.6708243 Z M121.698773,42.6602107 L128.147192,55.6617499 L126.339635,55.6632659 L124.577531,52.1744569 L117.465482,52.1759729 L115.750348,55.6632659 L113.976123,55.6632659 L120.341211,42.6677918 L121.698773,42.6602107 Z M121.019992,44.9694054 L118.224565,50.6233694 L123.848751,50.6218528 L121.019992,44.9694054 Z M129.151728,42.6708243 L130.815347,42.669308 L130.816863,54.1394706 L139.242535,54.1379546 L139.24405,55.6617499 L129.150213,55.6602339 L129.151728,42.6708243 Z M140.762217,42.6677918 L142.397049,42.6708243 L142.398564,54.1227922 L150.024245,54.1258248 L149.266677,55.6632659 L140.762217,55.6617499 L140.762217,42.6677918 Z M158.455978,42.6677918 L164.886216,55.6572013 L163.084719,55.6602339 L161.331706,52.1759729 L154.221172,52.1744569 L152.506038,55.6602339 L150.728783,55.6572013 L157.078719,42.6723404 L158.455978,42.6677918 Z M154.971165,50.6264014 L160.596865,50.6309501 L157.777196,44.9648567 L154.971165,50.6264014 Z" id="Combined-Shape"></path>
        </g>
    </g>
</svg>