<?xml version="1.0" encoding="UTF-8"?>
<svg width="200px" height="105px" viewBox="0 0 200 105" version="1.1" xmlns="http://www.w3.org/2000/svg" xmlns:xlink="http://www.w3.org/1999/xlink">
    <title>logo-8</title>
    <g id="logo-8" stroke="none" stroke-width="1" fill="none" fill-rule="evenodd">
        <g id="test" transform="translate(38.000000, 29.000000)" fill="#000000" fill-rule="nonzero">
            <path d="M79.4891497,17.1709864 C78.1571895,17.1741427 76.8440256,17.485472 75.652415,18.0806122 L87.322483,29.7506803 C87.9144969,28.5528998 88.2204042,27.2340506 88.2161668,25.8979592 C88.2169708,23.5830152 87.297848,21.3626182 85.6610851,19.7255556 C84.0243223,18.088493 81.8040938,17.1689635 79.4891497,17.1693876 M71.3360884,30.0736054 L71.3360884,30.0736054 L71.3360884,30.0736054 C71.3360884,30.0736054 73.4766667,32.2157823 73.5278231,32.2605442 C76.1696909,34.7549384 80.0848554,35.341671 83.3418707,33.7312925 L68.1020408,18.4866667 L67.5537075,17.939932 C70.898656,12.9107769 77.0339737,10.5135563 82.9023873,11.9428226 C88.770801,13.372089 93.1166986,18.3220348 93.7744878,24.3260664 C94.432277,30.3300979 91.2612166,36.1035861 85.841469,38.7695599 C80.4217213,41.4355338 73.9129014,40.4235787 69.5584014,36.2379592 L69.5584014,36.2379592 L67.3602721,34.0510204 L71.3360884,30.0736054 Z" id="Shape" opacity="0.600000024"></path>
            <path d="M110.50915,34.4778571 C107.362867,34.5204396 104.437188,32.8663116 102.851626,30.1484266 C101.266064,27.4305417 101.266064,24.0696284 102.851626,21.3517434 C104.437188,18.6338585 107.362867,16.9797304 110.50915,17.0223129 L119.237721,17.0223129 L119.237721,25.7508844 C119.236838,30.5709169 115.329182,34.4778572 110.50915,34.4778571 M119.237721,0.107108844 L119.237721,11.4062925 L110.50915,11.4062925 C102.58685,11.4062925 96.1645578,17.828585 96.1645578,25.7508844 C96.1645578,33.6731837 102.58685,40.0954762 110.50915,40.0954762 C118.431449,40.0954762 124.853741,33.6731837 124.853741,25.7508844 L124.853741,0.102312925 L119.237721,0.107108844 Z" id="Shape" opacity="0.600000024"></path>
            <rect id="Rectangle" opacity="0.600000024" x="95.7728912" y="44.6963605" width="27.8339116" height="2.20292517"></rect>
            <rect id="Rectangle" x="30.6539116" y="0.100714286" width="5.62241497" height="40.1578231"></rect>
            <path d="M20.3442857,23.0891497 L8.7477551,23.0891497 C7.10908492,23.0891497 5.78068027,21.760745 5.78068027,20.1220748 C5.78068027,18.4834046 7.10908492,17.155 8.7477551,17.155 L26.0818027,17.155 L26.0818027,11.537381 L8.7477551,11.537381 C5.65253439,11.4951438 2.77418591,13.1222292 1.21425433,15.7959511 C-0.345677243,18.469673 -0.345677243,21.7760753 1.21425433,24.4497972 C2.77418591,27.1235191 5.65253439,28.7506045 8.7477551,28.7083673 L20.3442857,28.7083673 C21.982073,28.7083673 23.3097619,30.0360563 23.3097619,31.6738435 C23.3097619,33.3116308 21.982073,34.6393197 20.3442857,34.6393197 L3.01343537,34.6393197 L3.01343537,40.2569388 L20.3442857,40.2569388 C25.0393586,40.1928642 28.8118336,36.3685543 28.8118336,31.6730442 C28.8118336,26.9775341 25.0393586,23.1532242 20.3442857,23.0891497" id="Path"></path>
            <path d="M52.817449,17.170969 C54.1520491,17.1734305 55.4679703,17.4847648 56.6621769,18.0806122 L44.9921088,29.7506803 C43.6523003,27.047753 43.8063708,23.8440246 45.3993695,21.2821389 C46.9923681,18.7202533 49.7974875,17.1649658 52.8142517,17.170969 M60.9673129,30.0752041 L60.9673129,30.0752041 L60.9673129,30.0752041 C60.9673129,30.0752041 58.8283333,32.217381 58.7771769,32.2621429 C56.1346044,34.7539718 52.2212293,35.3398942 48.9647279,33.7312925 L64.2013605,18.4930612 L64.7512925,17.9479252 C61.404436,12.9232219 55.2704414,10.5308412 49.4053902,11.9627161 C43.5403389,13.3945909 39.1988487,18.344423 38.5439386,24.3461048 C37.8890286,30.3477866 41.0607932,36.1174733 46.4789946,38.780589 C51.8971961,41.4437047 58.4028041,40.4305712 62.7545918,36.2459524 L62.7545918,36.2459524 L64.9479252,34.0510204 L60.9673129,30.0752041 Z" id="Shape"></path>
            <rect id="Rectangle" x="66.6936395" y="44.6963605" width="27.8339116" height="2.20292517"></rect>
        </g>
    </g>
</svg>