<?xml version="1.0" encoding="UTF-8"?>
<svg width="200px" height="105px" viewBox="0 0 200 105" version="1.1" xmlns="http://www.w3.org/2000/svg" xmlns:xlink="http://www.w3.org/1999/xlink">
    <title>logo-5</title>
    <g id="logo-5" stroke="none" stroke-width="1" fill="none" fill-rule="evenodd">
        <g id="Group-3" transform="translate(14.000000, 34.000000)" fill="#1E1E1E">
            <path d="M116.74166,18.6628 C116.74166,17.17947 117.94453,15.97734 119.42712,15.97734 C120.91082,15.97734 122.11258,17.17947 122.11258,18.6628 C122.11258,20.14576 120.91082,21.34789 119.42712,21.34789 C117.94453,21.34789 116.74166,20.14576 116.74166,18.6628 L116.74166,18.6628 Z M159.87663,6.44392 C157.72508,7.89506 154.8043,7.32711 153.35279,5.17593 L149.93991,0.06697 L161.13019,0.06697 C162.58133,2.21889 162.02855,4.99241 159.87663,6.44392 L159.87663,6.44392 Z M156.843,8.48336 L160.87119,8.48336 C162.07591,8.48336 163.05308,9.46016 163.05308,10.66562 L163.05308,26.44168 C163.05308,27.64677 162.07591,28.62394 160.87119,28.62394 L156.843,28.62394 C155.63828,28.62394 154.66148,27.64677 154.66148,26.44168 L154.66148,10.66562 C154.66148,9.46016 155.63828,8.48336 156.843,8.48336 L156.843,8.48336 Z M139.9155,18.52849 L139.9155,2.24849 C139.9155,1.0434 138.93796,0.06697 137.73324,0.06697 L133.70579,0.06697 C132.5007,0.06697 131.52353,1.0434 131.52353,2.24849 L131.52353,18.52849 C131.52353,24.64607 136.48301,29.60555 142.60059,29.60555 C148.71817,29.60555 153.67765,24.64607 153.67765,18.52849 C153.67765,12.41054 148.64269,7.45143 143.27214,7.45143 C143.27214,7.45143 141.25786,7.45143 141.25786,9.46534 L141.25786,13.9971 C141.25786,15.22476 142.42854,15.84303 143.27214,15.97105 C144.56455,16.16678 145.28568,17.04516 145.28568,18.52849 C145.28568,20.01182 144.08355,21.21395 142.60059,21.21395 C141.11763,21.21395 139.9155,20.01182 139.9155,18.52849 L139.9155,18.52849 Z M46.34509,18.46078 L46.34509,26.32439 C46.34509,27.52911 47.32189,28.50628 48.52735,28.50628 L52.5548,28.50628 C53.76026,28.50628 54.73706,27.52911 54.73706,26.32439 L54.73706,18.46078 C54.73706,12.34357 49.77795,7.38446 43.66037,7.38446 C37.54242,7.38446 32.58331,12.34357 32.58331,18.46078 C32.58331,24.5791 37.61827,29.53821 42.98882,29.53821 C42.98882,29.53821 45.00273,29.53821 45.00273,27.5243 L45.00273,22.99291 C45.00273,21.76562 43.83205,21.14698 42.98882,21.01896 C41.69567,20.82323 40.97454,19.94411 40.97454,18.46078 C40.97454,16.97856 42.17667,15.77643 43.66037,15.77643 C45.14296,15.77643 46.34509,16.97856 46.34509,18.46078 L46.34509,18.46078 Z M25.34648,0 L29.37504,0 C30.57976,0 31.55656,0.97606 31.55656,2.18115 L31.55656,26.34881 C31.55656,27.55427 30.57976,28.53107 29.37504,28.53107 L25.34648,28.53107 C24.14176,28.53107 23.16496,27.55427 23.16496,26.34881 L23.16496,2.18115 C23.16496,0.97606 24.14176,0 25.34648,0 L25.34648,0 Z M8.39197,18.46078 L8.39197,34.74078 C8.39197,35.94624 7.41517,36.92341 6.21045,36.92341 L2.18226,36.92341 C0.97754,36.92341 0,35.94624 0,34.74078 L0,18.46078 C0,12.34357 4.95985,7.38446 11.07706,7.38446 C17.19538,7.38446 22.15449,12.34357 22.15449,18.46078 C22.15449,24.5791 17.1199,29.53821 11.74861,29.53821 C11.74861,29.53821 9.7347,29.53821 9.7347,27.5243 L9.7347,22.99291 C9.7347,21.76562 10.90538,21.14698 11.74861,21.01896 C13.04139,20.82323 13.76252,19.94411 13.76252,18.46078 C13.76252,16.97856 12.56113,15.77643 11.07706,15.77643 C9.59484,15.77643 8.39197,16.97856 8.39197,18.46078 L8.39197,18.46078 Z M75.47112,10.57275 C75.47112,9.36803 74.49432,8.39123 73.2896,8.39123 L69.26104,8.39123 C68.05595,8.39123 67.07915,9.36803 67.07915,10.57275 L67.07471,19.92746 C67.07471,20.71556 66.43609,21.35381 65.64799,21.35381 C64.85989,21.35381 64.22164,20.71556 64.22164,19.92746 L64.22164,10.61271 C64.22164,9.40725 63.24484,8.39123 62.04012,8.39123 L58.01193,8.39123 C56.80684,8.39123 55.82967,9.20042 55.82967,10.40588 L55.82967,21.14698 C55.82967,24.33527 58.22357,27.78848 62.51631,27.78848 L62.63471,27.78848 C65.00308,27.78848 65.89404,27.00186 66.81904,26.24706 C67.15241,25.81675 67.32594,25.9111 67.32594,26.1627 C67.32594,28.58028 64.76628,30.66745 62.69317,30.64673 L59.76906,30.6175 C58.90326,30.60862 58.40709,31.62353 58.41153,32.18667 C58.41782,33.041 58.4267,33.42913 58.41153,34.37707 C58.37749,36.50753 60.29224,36.92341 62.79344,36.92341 L65.73198,36.92341 C68.92619,36.92341 75.46483,33.07541 75.46705,26.52789 L75.47112,10.57275 Z M76.50416,17.28973 C76.50416,11.78302 80.89939,7.38742 86.32174,7.38742 C88.41335,7.38742 90.35178,8.04121 91.94463,9.15565 C93.53748,8.04121 95.47554,7.38742 97.56678,7.38742 C102.9895,7.38742 107.38547,11.78302 107.38547,17.20574 L107.38547,26.35288 C107.38547,27.4651 106.31543,28.53477 105.20321,28.53477 L101.17576,28.53477 C100.06317,28.53477 98.9935,27.4651 98.9935,26.35288 L98.9935,17.20574 C98.9935,16.41801 98.35525,15.77939 97.56678,15.77939 C96.77942,15.77939 96.1408,16.41801 96.1408,17.20574 L96.1408,26.35288 C96.1408,27.4651 95.07076,28.53477 93.95854,28.53477 L89.93035,28.53477 C88.81813,28.53477 87.74883,27.4651 87.74883,26.35288 L87.74883,17.28973 C87.74883,16.41801 87.11021,15.77939 86.32174,15.77939 C85.53401,15.77939 84.89576,16.41801 84.89576,17.20574 L84.89576,26.35288 C84.89576,27.4651 83.82572,28.53477 82.71387,28.53477 L78.68568,28.53477 C77.57346,28.53477 76.50416,27.4651 76.50416,26.35288 L76.50416,17.28973 Z M168.87688,24.14361 L167.66106,24.14361 L167.66106,22.89634 L168.89131,22.89634 C169.21839,22.89634 169.49441,23.20973 169.49441,23.53681 C169.49441,23.86352 169.20359,24.14361 168.87688,24.14361 L168.87688,24.14361 Z M169.02488,24.64274 C169.69051,24.64274 170.06273,24.13695 170.06273,23.47909 C170.06273,22.82086 169.49034,22.34171 168.83211,22.34171 L167.03021,22.34171 L167.03021,26.53714 L167.65662,26.53714 L167.65662,24.70194 L168.32891,24.70194 L169.45408,26.50754 L170.22368,26.50754 L169.02488,24.64274 Z M165.01334,24.43924 C165.01334,22.52745 166.55624,20.97715 168.45878,20.97715 C170.36206,20.97715 171.90459,22.52745 171.90459,24.43924 C171.90459,26.35177 170.36206,27.90207 168.45878,27.90207 C166.55624,27.90207 165.01334,26.35177 165.01334,24.43924 L165.01334,24.43924 Z M164.61078,24.43924 C164.61078,22.31396 166.3335,20.59087 168.45878,20.59087 C170.58443,20.59087 172.30826,22.31396 172.30826,24.43924 C172.30826,26.56452 170.58443,28.28798 168.45878,28.28798 C166.3335,28.28798 164.61078,26.56452 164.61078,24.43924 L164.61078,24.43924 Z M166.44006,0.0925 L170.46788,0.0925 C171.67334,0.0925 172.65014,1.06856 172.65014,2.27402 L172.65014,26.44168 C172.65014,27.64677 171.67334,28.62394 170.46788,28.62394 L166.44006,28.62394 C165.23534,28.62394 164.25817,27.64677 164.25817,26.44168 L164.25817,2.27402 C164.25817,1.06856 165.23534,0.0925 166.44006,0.0925 L166.44006,0.0925 Z M108.34969,18.46078 C108.34969,12.34357 113.30954,7.38446 119.42712,7.38446 C125.54507,7.38446 130.50418,12.34357 130.50418,18.46078 C130.50418,24.5791 125.54507,29.53821 119.42712,29.53821 C113.30954,29.53821 108.34969,24.5791 108.34969,18.46078 L108.34969,18.46078 Z" id="Fill-1"></path>
        </g>
    </g>
</svg>