<?xml version="1.0" encoding="UTF-8"?>
<svg width="200px" height="105px" viewBox="0 0 200 105" version="1.1" xmlns="http://www.w3.org/2000/svg" xmlns:xlink="http://www.w3.org/1999/xlink">
    <title>logo-4</title>
    <g id="logo-4" stroke="none" stroke-width="1" fill="none" fill-rule="evenodd">
        <g id="OB-EASYMAIL_purple" transform="translate(16.000000, 25.000000)" fill="#2F2F2F">
            <path d="M78.0015175,0 C82.4197955,-8.11624501e-16 86.0015175,3.581722 86.0015175,8 L86.0015175,48 C86.0015175,52.418278 82.4197955,56 78.0015175,56 L56.152,56 L65.2828699,50.7289907 C65.4020337,50.6598855 65.5001973,50.5807685 65.6178959,50.5126401 C72.2068218,46.6913415 73.6399614,37.3572537 69.7104875,30.5522214 C66.9484766,25.7646707 61.9941454,23.0322065 56.8473941,22.8842286 L56.7541143,22.8837402 L56.8024635,22.802914 C59.2467858,18.270784 59.9537102,13.6514788 56.5919734,7.83003599 C53.2312135,2.00663963 43.7647757,-2.38337294 37.0942911,1.46673988 L27.6097835,6.94241246 L27.6114928,6.94534272 C26.4574601,7.61295282 25.3014739,8.28007454 24.1467087,8.94280088 L9.41069309,17.4498238 C5.29606279,20.2714233 2.11851413,24.0161709 -4.21884749e-15,28.2355208 L0.00151747674,8 C0.00151747674,3.581722 3.58323948,8.11624501e-16 8.00151748,0 L78.0015175,0 Z M30.2435956,52.7095999 L31.1685799,54.3092757 L31.0364742,54.3683692 L30.8650542,54.4450443 L30.6958319,54.5195216 L30.5246561,54.590092 L30.3534803,54.6606623 L30.1827928,54.7295233 L30.0103961,54.7954541 L29.8372667,54.8606523 L29.6651142,54.9221877 L29.4924732,54.9837231 L29.3193439,55.0428166 L29.1464588,55.1002008 L28.9738178,55.1544105 L28.8002001,55.2091086 L28.6253615,55.2603881 L28.4522322,55.3102025 L28.10402,55.4042149 L27.9291814,55.4474362 L27.7553195,55.4901691 L27.5814576,55.5309485 L27.4063748,55.5705069 L27.2315362,55.60567 L27.0574301,55.6425424 L26.883324,55.6752636 L26.707997,55.7070081 L26.5334026,55.7355781 L26.3588081,55.7636597 L26.1847021,55.7890552 L24.683,56 L24.533,56 L28.9923761,53.4309313 L29.3291114,53.2360693 L30.2435956,52.7095999 Z M20.8584726,51.347519 L21.2787202,51.5831605 L21.5348734,51.7194174 L21.7949337,51.8507905 L22.0571916,51.976059 L22.3206705,52.0986414 L22.5885448,52.2131656 L22.8578842,52.3245153 L23.1301539,52.4295162 L23.4036445,52.5281682 L23.6807979,52.6234015 L23.9589281,52.7115534 L24.2404769,52.7962866 L24.5222699,52.8744268 L24.8065048,52.9471948 L25.0929373,53.0153233 L26.1302481,53.2387554 L21.6242462,55.8366719 L21.1820217,55.7714737 L20.8604261,55.717264 L20.5410281,55.6576821 L20.2238278,55.5919955 L19.909802,55.5187391 L19.5969971,55.4405989 L19.2880993,55.3553773 L18.9801782,55.2633184 L18.6759199,55.1651548 L18.3743476,55.0611307 L18.0754615,54.9514903 L17.7792614,54.8350126 L17.4872125,54.7119418 L17.1966287,54.5827663 L16.9111729,54.4487071 L16.1439341,54.0663086 L20.8584726,51.347519 Z M37.3714445,48.5874616 L36.3136219,49.9405075 L36.2039815,50.0789621 L36.0928759,50.2154632 L35.9798169,50.3512318 L35.8645601,50.4874887 L35.7495476,50.6222805 L35.630628,50.7563397 L35.5129293,50.8889339 L35.3910795,51.0210396 L35.2687413,51.151436 L35.1456705,51.2806115 L35.0194253,51.4097869 L34.8926917,51.5372531 L34.7647372,51.6649634 L34.6343408,51.7897435 L34.5027234,51.915012 L34.3693968,52.0385711 L34.234605,52.1599326 L34.0993248,52.2832476 L33.9616027,52.4019229 L33.8233923,52.5213309 L33.6820074,52.6395179 L33.5406225,52.7562398 L33.3975284,52.8712524 L33.2524807,52.9867533 L33.106212,53.0995682 L32.9587225,53.2114063 L32.8100119,53.3212909 L32.6600805,53.4319081 L32.5414051,53.5154204 L31.6183743,51.9162329 L32.5340795,51.38781 L32.8686171,51.192948 L37.3714445,48.5874616 Z M131.855293,29.0044111 C132.747068,29.0044111 133.493551,29.263983 134.094742,29.7902082 C134.694712,30.3115497 135.140599,30.9732993 135.42923,31.7757011 L135.42923,31.7757011 L141.973957,49.9425587 C142.085063,50.2094562 142.159784,50.4543768 142.18982,50.6780531 C142.226204,50.8975781 142.241099,51.066312 142.241099,51.1781502 C142.241099,51.8237833 142.012295,52.3524504 141.554931,52.7636631 C141.100497,53.1736548 140.560353,53.3802379 139.936208,53.3802379 C139.226598,53.3802379 138.686454,53.2183412 138.318462,52.8947921 C137.952669,52.5734406 137.678934,52.1541698 137.500677,51.6425958 L137.500677,51.6425958 L136.524169,48.592443 C134.978458,49.0944936 133.344352,49.3711587 131.662873,49.3711587 L131.662873,49.3711587 C130.102512,49.3711587 128.590011,49.1374707 127.153941,48.7045253 L127.153941,48.7045253 L126.215282,51.6096304 C126.036048,52.1234021 125.764511,52.5470683 125.397252,52.8811176 C125.029261,53.2112598 124.497908,53.3802379 123.81003,53.3802379 C123.143641,53.3802379 122.564427,53.1587594 122.074341,52.7138487 C121.585233,52.2662521 121.340556,51.711701 121.340556,51.0426258 C121.340556,50.7754841 121.368638,50.549366 121.421871,50.3615854 C121.477546,50.1713629 121.529314,50.0329083 121.575954,49.9425587 L121.575954,49.9425587 L128.283799,31.7757011 C128.574627,30.9972297 129.029061,30.3401197 129.655403,29.8065688 C130.27735,29.2732621 131.012356,29.0044111 131.855293,29.0044111 Z M113.416899,29.1330982 C113.8601,29.1330982 114.271557,29.2092849 114.651758,29.3662978 C115.027563,29.5235549 115.357949,29.7259867 115.63437,29.9662678 C115.913477,30.2138745 116.148142,30.4854115 116.335923,30.7877163 C116.524924,31.0878234 116.643844,31.3925701 116.689018,31.7043982 L116.689018,31.7043982 L119.792893,50.3400968 C119.815114,50.4499814 119.826591,50.549366 119.826591,50.6399597 L119.826591,50.6399597 L119.826591,50.9073456 C119.826591,51.6425958 119.592903,52.223275 119.124306,52.6615925 C118.658151,53.0923402 118.092611,53.3113769 117.422071,53.3113769 C116.577425,53.3113769 115.961094,53.1140729 115.56844,52.7287442 C115.17896,52.3353573 114.929644,51.7544339 114.816585,50.9708345 L114.816585,50.9708345 L112.847208,37.3805492 L112.781277,37.3805492 L108.774152,51.3756983 C108.708953,51.5712929 108.616894,51.7854458 108.507254,52.0093663 C108.396148,52.2306006 108.235473,52.4425558 108.022297,52.6398598 C107.812295,52.8422917 107.550037,53.0068744 107.237476,53.1260382 C106.926625,53.2495973 106.546668,53.3113769 106.103955,53.3113769 C105.654649,53.3113769 105.278844,53.2495973 104.967504,53.1260382 C104.656653,53.0068744 104.39586,52.8422917 104.183905,52.6398598 C103.972194,52.4425558 103.810053,52.2306006 103.697726,52.0093663 C103.590039,51.7854458 103.499202,51.5712929 103.432782,51.3756983 L103.432782,51.3756983 L99.4256567,37.3805492 L99.3597259,37.3805492 L97.389861,50.9708345 C97.2775345,51.7544339 97.0260208,52.3353573 96.6384944,52.7287442 C96.2485261,53.1140729 95.6297536,53.3113769 94.7836421,53.3113769 C94.1157878,53.3113769 93.5500041,53.0923402 93.0818956,52.6615925 C92.6152523,52.223275 92.3818085,51.6425958 92.3818085,50.9073456 L92.3818085,50.9073456 L92.3818085,50.6399597 C92.3818085,50.549366 92.3898667,50.4499814 92.4120878,50.3400968 L92.4120878,50.3400968 L95.5166945,31.7043982 C95.5643112,31.3925701 95.6788354,31.0878234 95.8690579,30.7877163 C96.0580594,30.4854115 96.2934567,30.2138745 96.569145,29.9662678 C96.8504496,29.7259867 97.1766848,29.5235549 97.5551763,29.3662978 C97.9339119,29.2092849 98.3434153,29.1330982 98.7907678,29.1330982 C99.6361468,29.1330982 100.359676,29.3826584 100.961844,29.8851973 C101.563035,30.3855386 101.950317,30.9376478 102.129307,31.5354201 L102.129307,31.5354201 L106.069281,44.7618653 L106.137165,44.7618653 L110.075674,31.5354201 C110.254419,30.9376478 110.643167,30.3855386 111.244602,29.8851973 C111.848723,29.3826584 112.569566,29.1330982 113.416899,29.1330982 Z M147.002766,29.1330982 C147.716772,29.1330982 148.310149,29.3543326 148.791199,29.8019292 C149.267854,30.2448863 149.508623,30.8902753 149.508623,31.7380962 L149.508623,31.7380962 L149.508623,50.7066231 C149.508623,51.5520021 149.267854,52.194705 148.791199,52.6398598 C148.310149,53.0898983 147.716772,53.3113769 147.002766,53.3113769 C146.290958,53.3113769 145.695871,53.0898983 145.218484,52.6398598 C144.740852,52.194705 144.500571,51.5520021 144.500571,50.7066231 L144.500571,50.7066231 L144.500571,31.7380962 C144.500571,30.8902753 144.740852,30.2448863 145.218484,29.8019292 C145.695871,29.3543326 146.290958,29.1330982 147.002766,29.1330982 Z M155.684872,29.1330982 C156.397656,29.1330982 156.991033,29.3543326 157.472572,29.8019292 C157.950204,30.2448863 158.188043,30.8902753 158.188043,31.7380962 L158.188043,31.7380962 L158.188043,48.4996516 L164.134266,48.4996516 C164.555246,48.4996516 164.921773,48.5736405 165.234577,48.7186882 C165.54665,48.866422 165.804268,49.0522491 166.002549,49.2900883 C166.204248,49.5186483 166.348319,49.7784643 166.435983,50.0565945 C166.526576,50.3330154 166.558321,50.6140758 166.537565,50.9073456 C166.515099,51.4616525 166.291179,51.9710287 165.869466,52.4283929 C165.444335,52.8825827 164.867563,53.1091892 164.134266,53.1091892 L164.134266,53.1091892 L155.787675,53.1091892 C154.964517,53.1091892 154.320837,52.8662221 153.864938,52.3732064 C153.41026,51.8853187 153.179014,51.2184412 153.179014,50.3730622 L153.179014,50.3730622 L153.179014,31.7380962 C153.179014,30.8902753 153.419783,30.2448863 153.899369,29.8019292 C154.376756,29.3543326 154.971842,29.1330982 155.684872,29.1330982 Z M16.4201108,47.1355195 L16.7167992,47.5577206 L16.8547655,47.7459896 L16.9949294,47.9320609 L17.138512,48.1154461 L17.2850248,48.2956569 L17.4337353,48.4734258 L17.5851319,48.6485086 L17.7397029,48.819196 L17.8967158,48.98793 L18.056659,49.1537336 L18.2183115,49.3151419 L18.3831384,49.4750851 L18.550163,49.6311213 L18.7196295,49.7856923 L18.8917821,49.9358679 L19.3867512,50.3536737 L14.6573173,53.0814983 L14.3000702,52.7979959 L14.1149757,52.6463552 L13.9318346,52.4912958 L13.7518681,52.3311084 L13.5745875,52.1675024 L13.4002373,52.0021871 L13.2288173,51.8336974 L13.0603275,51.6608122 L12.8955006,51.4835317 L12.7321388,51.3042977 L12.5743933,51.1216451 L12.4171362,50.9363063 L12.2659838,50.7460839 L12.1158082,50.5536637 L11.9705163,50.3575807 L11.6379322,49.8921583 L16.4201108,47.1355195 Z M27.3111415,47.6278026 L29.4463217,51.3272514 L28.3755571,51.9440704 L28.1064619,51.9406517 L27.4530147,51.8998723 L26.8034746,51.829302 L26.1597949,51.7286965 L25.5244176,51.6000094 L24.8968543,51.4390895 L24.279547,51.2491112 L23.6729839,51.0312955 L23.0786302,50.7846656 L22.3980781,50.4601397 L27.3111415,47.6278026 Z M33.5936114,43.997459 L33.5340295,44.7466279 L33.4505172,45.385668 L33.335993,46.0203127 L33.1916778,46.6500737 L33.016595,47.2722648 L32.8100119,47.8895722 L32.5773007,48.4963794 L32.314066,49.0946401 L32.0217729,49.6811798 L31.8901556,49.9163329 L30.8208562,50.5341286 L28.684455,46.8363892 L33.5936114,43.997459 Z M24.3779548,42.5467379 L26.5136233,46.2461867 L20.8482167,49.5114691 L20.3385962,49.1266288 L19.8455806,48.7127301 L19.3723441,48.2731916 L18.9220614,47.8058157 L18.4944881,47.3120675 L18.0906011,46.7912144 L17.783901,46.349234 L24.3779548,42.5467379 Z M39.8416507,40.3827435 L39.7898828,41.2391109 L39.7635105,41.5538693 L39.7295684,41.8696044 L39.6892774,42.1843628 L39.6423933,42.4979003 L39.5894045,42.8116819 L39.5271365,43.1254635 L39.460229,43.4382684 L39.3857516,43.7491198 L39.3034603,44.0607037 L39.2162851,44.3703342 L39.1225169,44.6802088 L39.0214231,44.9864206 L38.913492,45.2926324 L38.7989678,45.5981116 L38.6351176,46.0144522 L34.1318018,48.6170083 L34.4551068,47.6072908 L34.5405726,47.3254978 L34.6196895,47.0429722 L34.6941668,46.7597141 L34.7610744,46.4747467 L34.8233423,46.1890467 L34.8792614,45.9018815 L34.9310292,45.6147164 L34.9754715,45.3265745 L35.0152741,45.0374559 L35.0487279,44.748093 L35.0768095,44.4589744 L35.0973213,44.1686348 L35.1127051,43.8785394 L35.122961,43.5877115 L35.1305309,43.1069052 L39.8416507,40.3827435 Z M14.3269309,41.5709625 L14.4402341,42.2100026 L14.4844322,42.4329463 L14.532293,42.6568667 L14.5838167,42.8798104 L14.6392474,43.1017773 L14.6983409,43.3235 L14.7618298,43.5452228 L14.8275164,43.7657246 L14.8993076,43.9847612 L14.9740292,44.2042863 L15.0526577,44.4218578 L15.1347049,44.6386968 L15.22188,44.8543148 L15.3122296,45.0694445 L15.4059978,45.2838416 L15.6228368,45.7521943 L10.8404141,48.5090772 L10.6050168,47.9870032 L10.5090509,47.763327 L10.4167478,47.5357437 L10.3298169,47.3110907 L10.2472813,47.0817981 L10.1679202,46.8525056 L10.0944196,46.6234572 L10.0245818,46.3912344 L9.9596278,46.1585232 L9.89858079,45.9255678 L9.84241755,45.6916356 L9.79113806,45.4559942 L9.74376558,45.2196202 L9.69956754,44.9844671 L9.66245096,44.7466279 L9.596276,44.2978103 L14.3269309,41.5709625 Z M32.3409267,37.9450143 L32.5707077,38.4314369 L32.8180701,39.0397093 L33.0324672,39.6587259 L33.2109687,40.2818938 L33.3572373,40.911899 L33.4676103,41.5455669 L33.5455063,42.1807 L27.8869369,45.4537965 L25.7512683,41.7550803 L32.3409267,37.9450143 Z M21.4455006,37.4676267 L23.5797041,41.165122 L16.9880921,44.9656646 L16.7590438,44.480463 L16.5104603,43.870237 L16.2977725,43.2517087 L16.1190269,42.6282967 L15.9764211,41.997559 L15.8653155,41.3619375 L15.7881521,40.7282695 L21.4455006,37.4676267 Z M131.891677,34.2141629 L131.825502,34.2141629 L128.654477,43.8996373 L128.496243,44.3997344 C129.510111,44.6995973 130.564515,44.8590521 131.654815,44.8590521 C132.857441,44.8590521 134.019532,44.6639459 135.126681,44.3020592 L135.126681,44.3020592 L134.997993,43.8996373 L131.891677,34.2141629 Z M56.4530304,34.2987985 C59.9646986,34.860431 60.9206948,39.3991541 58.0976369,41.310658 C58.0842065,41.3201814 58.0690669,41.3299489 58.0556365,41.3394722 L58.0580784,41.3426467 C58.0409853,41.3526584 58.0226712,41.365112 58.0050896,41.3753679 L57.3628751,41.7450685 L57.2920605,41.7858479 L53.3706448,44.0465408 L49.541288,37.403161 L53.5071459,35.1168284 L53.5569603,35.088991 C53.7935785,34.9532224 54.0177431,34.8289307 54.2389775,34.7158717 L54.2414194,34.720267 C54.2597335,34.7114763 54.2760941,34.7034181 54.2944082,34.6953599 C54.9573787,34.3766945 55.5964188,34.203321 56.4530304,34.2987985 Z M15.2121125,34.289031 L14.8851447,35.2989927 L14.8001673,35.5817624 L14.7200736,35.8630671 L14.6455963,36.1470577 L14.5786888,36.4315368 L14.5151999,36.717481 L14.4587924,37.003181 L14.4075129,37.2918113 L14.3623381,37.5782438 L14.3225355,37.8671183 L14.2883492,38.1559927 L14.2600234,38.4468207 L14.2390232,38.7356952 L14.2226626,39.0260347 L14.2131393,39.3168627 L14.2041043,39.7981573 L9.49029839,42.5154818 L9.54353139,41.661312 L9.57112463,41.3465537 L9.60433421,41.0308185 L9.64462523,40.7167927 L9.6922419,40.4022785 L9.74645165,40.0882527 L9.80701028,39.7739827 L9.87513874,39.4621546 L9.94961609,39.1503264 L10.0321517,38.8382541 L10.1193268,38.5296004 L10.2140717,38.2204584 L10.3158982,37.9120489 L10.4245618,37.6077906 L10.5385976,37.301823 L10.7046455,36.8864591 L15.2121125,34.289031 Z M38.4795698,34.3935434 L38.716188,34.9134198 L38.8131307,35.1397821 L38.9051896,35.3639467 L38.9933415,35.5910416 L39.0756328,35.8198458 L39.1554823,36.047429 L39.2284945,36.2784309 L39.2993091,36.5099212 L39.3649957,36.742144 L39.4260427,36.974611 L39.4819617,37.2078106 L39.5349505,37.4436962 L39.5825672,37.6795819 L39.6257885,37.9154675 L39.6648586,38.1523299 L39.7317661,38.6026127 L35.005995,41.3358094 L34.8897615,40.6970135 L34.8453192,40.4740698 L34.7977026,40.249661 L34.7452021,40.0272057 L34.6897715,39.8045062 L34.630678,39.5830276 L34.5667007,39.3610607 L34.4997932,39.1412915 L34.4292228,38.9222548 L34.3535245,38.7034623 L34.2731867,38.4863792 L34.1913837,38.2700286 L34.1042085,38.0539221 L34.0141032,37.8378157 L33.9178931,37.6243954 L33.7010541,37.1567753 L38.4795698,34.3935434 Z M28.4712789,33.4058028 L28.9813877,33.7894222 L29.4763568,34.2021 L29.9500816,34.6426152 L30.4001202,35.109747 L30.8298911,35.6017859 L31.2349991,36.1221506 L31.5409667,36.5638867 L24.9530176,40.372976 L22.8183258,36.6752365 L28.4712789,33.4058028 Z M18.5110929,32.3865619 L20.6470057,36.0862549 L15.7434657,38.9122431 L15.8050011,38.1603881 L15.8882692,37.5223248 L16.0040143,36.8874359 L16.1507713,36.2591401 L16.3258542,35.6362164 L16.5329256,35.0203741 L16.7688113,34.4123459 L17.0325344,33.8157945 L17.3258042,33.2290107 L17.4564448,32.9945902 L18.5110929,32.3865619 Z M34.6555851,29.8286922 L35.0128322,30.110241 L35.1986593,30.262126 L35.3808236,30.4171854 L35.5610344,30.5756634 L35.7390475,30.7385369 L35.9133977,30.9045847 L36.0850619,31.0735629 L36.25404,31.246448 L36.4203321,31.4210424 L36.5829613,31.6012532 L36.7414394,31.7836617 L36.8986965,31.969733 L37.0503372,32.1594671 L37.2002687,32.3518872 L37.3462931,32.5472377 L37.679854,33.0121717 L32.9037801,35.7751594 L32.6073359,35.3527141 L32.4683929,35.1646893 L32.3287173,34.9793505 L32.1844022,34.7957211 L32.0381335,34.6157546 L31.889423,34.4382299 L31.7358288,34.2646122 L31.5817461,34.0936805 L31.4237564,33.9247024 L31.2643016,33.7596313 L31.1009399,33.5984672 L30.9370897,33.4387682 L30.7688441,33.2822437 L30.5984009,33.1288936 L30.4257599,32.9806714 L29.9303024,32.5628657 L34.6555851,29.8286922 Z M20.9397872,30.985411 L21.2079056,30.9888296 L21.8625738,31.0274113 L22.5116256,31.0970049 L23.1555494,31.1978546 L23.7919035,31.3262975 L24.4189783,31.4857523 L25.0372625,31.6723119 L25.6435814,31.8898835 L26.2381792,32.1367576 L26.9206848,32.45933 L22.0198309,35.2923996 L19.8841623,31.5936834 L20.9397872,30.985411 Z M16.7920091,29.4079562 L17.7140632,31.0047018 L16.8166721,31.5218921 L16.4804252,31.7162658 L11.9807722,34.308566 L13.0315133,32.9628457 L13.1411538,32.8253679 L13.2529919,32.68789 L13.3670277,32.5513889 L13.4817961,32.4153761 L13.5975412,32.2815611 L13.7164608,32.1475019 L13.8353804,32.0158845 L13.9567418,31.8832904 L14.0783475,31.7536265 L14.2028834,31.6222534 L14.3286402,31.4942989 L14.4561064,31.3670769 L14.5847935,31.2418084 L14.7144573,31.1155632 L14.8460747,30.9915157 L14.9798897,30.8677123 L15.1139489,30.7458625 L15.2499617,30.6245011 L15.3881721,30.5038722 L15.5263825,30.3856852 L15.6677674,30.267254 L15.8098848,30.1502879 L15.9532232,30.0367404 L16.0985151,29.9207511 L16.2447837,29.8086688 L16.3937384,29.6968307 L16.5422048,29.5864577 L16.6928688,29.4768173 L16.7920091,29.4079562 Z M27.6854817,27.0832861 L28.1277063,27.146775 L28.4495461,27.1997638 L28.7679673,27.2591015 L29.0861443,27.3250323 L29.4001702,27.3975561 L29.7127308,27.4749637 L30.0230938,27.5618947 L30.3315033,27.6520001 L30.6342965,27.7499195 L30.9370897,27.8541878 L31.23622,27.9633398 L31.5324201,28.0788407 L31.8254458,28.2021557 L32.1155412,28.3301102 L32.4012412,28.4644137 L33.1677474,28.8451028 L28.4566276,31.5704855 L28.0356474,31.3358208 L27.7799825,31.1993197 L27.5196781,31.0669698 L27.2581527,30.9414571 L26.9939412,30.821805 L26.7255786,30.706304 L26.454774,30.5959311 L26.1837253,30.4914186 L25.9099905,30.3917899 L25.6333255,30.2992426 L25.353486,30.2093814 L25.074379,30.1258691 L24.7906325,30.0477289 L24.5063977,29.9756934 L24.2206977,29.9095185 L23.1821659,29.6873074 L27.6854817,27.0832861 Z M24.8155397,26.8984358 L20.3195495,29.4990384 L19.9833026,29.6936563 L19.0871325,30.2118233 L18.1653227,28.6148335 L18.2742305,28.5642866 L18.4444296,28.4890767 L18.6136519,28.4145993 L18.7853161,28.3415871 L18.9564919,28.2715051 L19.1284003,28.2036208 L19.2995761,28.1357366 L19.4709961,28.0712709 L19.6436371,28.0085146 L19.8157896,27.9472234 L19.9898957,27.8878857 L20.1627808,27.8309899 L20.3363985,27.7760476 L20.5092837,27.722082 L20.682413,27.6705583 L20.8560307,27.6202556 L21.0301367,27.5719064 L21.2039986,27.5247781 L21.3783489,27.4805801 L21.552455,27.4378471 L21.7268052,27.3963352 L22.0762383,27.3203927 L22.2508328,27.2854738 L22.4249388,27.2522642 L22.6002658,27.220764 L22.7743719,27.1907289 L22.9489664,27.162403 L23.1242934,27.1352982 L24.8155397,26.8984358 Z M138.687186,1.68001371 C139.157981,1.68001371 139.76259,1.73056063 140.507852,1.82799166 C141.253114,1.93299252 141.976155,2.10636603 142.677463,2.36154253 C143.378283,2.62111441 143.980206,2.95931485 144.483966,3.37760896 C144.980156,3.80176358 145.229228,4.34947735 145.229228,5.01366882 C145.229228,5.66369738 145.031436,6.23778346 144.631212,6.73739219 C144.230987,7.23748929 143.686204,7.48778203 142.994419,7.48778203 C142.662568,7.48778203 142.33267,7.44040955 142.010341,7.33760639 C141.684595,7.23748929 141.353231,7.12345348 141.007461,6.98524305 C140.662668,6.85216056 140.295897,6.73739219 139.905685,6.64020535 C139.516937,6.53544868 139.064457,6.48758782 138.555325,6.48758782 C137.842296,6.48758782 137.205453,6.67121723 136.650658,7.03530159 C136.095863,7.40695579 135.817244,7.94465785 135.817244,8.65426829 C135.817244,9.23543583 136.086828,9.6830325 136.634542,9.99046524 C137.178593,10.3020492 137.870622,10.5809119 138.70257,10.8280302 C139.53867,11.0707531 140.435817,11.347174 141.392301,11.6475253 C142.349274,11.9447021 143.243003,12.3664149 144.07837,12.8994774 C144.915202,13.4332724 145.602347,14.140441 146.152015,15.0187853 C146.696798,15.8973739 146.968335,17.0589764 146.968335,18.5067673 C146.968335,19.7091492 146.738554,20.790658 146.282899,21.7476309 C145.825779,22.7041155 145.210426,23.5140872 144.429512,24.1826741 C143.652018,24.8519935 142.743394,25.3613697 141.707548,25.7208145 C140.673412,26.0712244 139.576763,26.2546096 138.419312,26.2546096 C137.773923,26.2546096 136.991056,26.2040627 136.066805,26.1022362 C135.142797,26.0016308 134.254441,25.8187339 133.392701,25.5523248 C132.538532,25.2832296 131.807433,24.9069358 131.208928,24.4166062 C130.607004,23.9304278 130.30763,23.2899226 130.30763,22.513893 C130.30763,21.8663063 130.507375,21.313953 130.9076,20.8448678 C131.311975,20.3757825 131.855293,20.142583 132.544148,20.142583 C132.944128,20.142583 133.356561,20.211444 133.778763,20.3428172 C134.201208,20.4783415 134.647095,20.6285172 135.114471,20.7923673 C135.581114,20.9615896 136.073642,21.1115211 136.583506,21.2472897 C137.095813,21.3781744 137.61984,21.4423959 138.153147,21.4423959 C139.266889,21.4423959 140.113733,21.171103 140.690749,20.6285172 C141.268986,20.0827569 141.559082,19.3973211 141.559082,18.5731864 C141.559082,17.9067973 141.285835,17.3927815 140.740564,17.0401739 C140.19578,16.6829268 139.504972,16.3732964 138.670826,16.1210502 C137.835703,15.8639201 136.940509,15.6021506 135.983536,15.335253 C135.026563,15.0688439 134.13137,14.7018293 133.296003,14.2332324 C132.458438,13.7641472 131.769339,13.1400026 131.225777,12.3664149 C130.677574,11.5852573 130.407991,10.5499 130.407991,9.25912207 C130.407991,8.07554264 130.629958,7.0208945 131.075845,6.08541012 C131.519535,5.15212344 132.12097,4.36144257 132.880395,3.7136117 C133.633959,3.06871109 134.514501,2.56885817 135.515428,2.21625064 C136.518064,1.85705004 137.575398,1.68001371 138.687186,1.68001371 Z M162.760953,1.8782944 C163.472517,1.8782944 164.051486,2.11857543 164.496641,2.59718398 C164.94204,3.07579254 165.164495,3.64939024 165.164495,4.31870966 C165.164495,4.87350488 165.007238,5.37360199 164.697852,5.82119866 L164.697852,5.82119866 L158.386568,14.7018293 L158.386568,23.6161578 C158.386568,24.2403025 158.192194,24.7997372 157.80418,25.2995902 C157.4147,25.8021291 156.769799,26.0516893 155.883885,26.0516893 C154.991378,26.0516893 154.352337,25.8021291 153.962369,25.2995902 C153.574354,24.7997372 153.379248,24.2403025 153.379248,23.6161578 L153.379248,23.6161578 L153.379248,14.7018293 L147.067231,5.82119866 C146.758089,5.37360199 146.601809,4.87350488 146.601809,4.31870966 C146.601809,3.64939024 146.821822,3.07579254 147.268931,2.59718398 C147.712376,2.11857543 148.292811,1.8782944 149.005596,1.8782944 C149.919592,1.8782944 150.6104,2.21625064 151.074357,2.88019792 L151.074357,2.88019792 L155.883885,9.85909208 L160.690726,2.88019792 C161.15737,2.21625064 161.848666,1.8782944 162.760953,1.8782944 Z M119.274237,1.68001371 C120.164791,1.68001371 120.911274,1.94007397 121.511976,2.46654338 C122.115365,2.98544297 122.557834,3.64939024 122.848418,4.44935026 L122.848418,4.44935026 L129.390948,22.6135217 C129.500588,22.8804193 129.576531,23.1282701 129.610229,23.3499929 C129.64124,23.570983 129.658578,23.7402053 129.658578,23.8498458 C129.658578,24.4947464 129.431483,25.0258554 128.976561,25.4356029 C128.519929,25.8475481 127.977832,26.0516893 127.355152,26.0516893 C126.643588,26.0516893 126.102956,25.8924787 125.734232,25.5684412 C125.369171,25.2473339 125.094703,24.8280631 124.9184,24.3140472 L124.9184,24.3140472 L123.943113,21.2614526 C122.397646,21.7688753 120.763296,22.0426101 119.082061,22.0426101 L119.082061,22.0426101 C117.519502,22.0426101 116.007734,21.8091663 114.568978,21.3781744 L114.568978,21.3781744 L113.633982,24.2808377 C113.454748,24.7948535 113.181501,25.2185197 112.814975,25.5523248 C112.446495,25.8853973 111.917096,26.0516893 111.227753,26.0516893 C110.56112,26.0516893 109.98215,25.830455 109.493041,25.3853002 C109.001491,24.939657 108.758035,24.385106 108.758035,23.7140772 C108.758035,23.4469355 108.783675,23.2232593 108.840815,23.0283972 C108.897955,22.8447678 108.945816,22.7041155 108.991967,22.6135217 L108.991967,22.6135217 L115.702987,4.44935026 C115.992106,3.67087879 116.448249,3.01645485 117.07215,2.48095048 C117.695073,1.94446936 118.430323,1.68001371 119.274237,1.68001371 Z M104.231766,2.0782844 C105.031481,2.0782844 105.628033,2.31856543 106.016048,2.7969298 C106.406749,3.27822442 106.60039,3.80176358 106.60039,4.38512881 C106.60039,4.96361027 106.400644,5.49227737 105.999443,5.96868824 C105.597754,6.44973868 105.010726,6.68782201 104.231766,6.68782201 L104.231766,6.68782201 L98.3548921,6.68782201 L98.3548921,11.5637688 L103.831053,11.5637688 C104.655432,11.5637688 105.264925,11.8018521 105.664173,12.2785072 C106.067083,12.7593134 106.268782,13.289934 106.268782,13.8640201 C106.268782,14.4451876 106.062443,14.9733664 105.650254,15.449533 C105.239286,15.9308277 104.631257,16.1684226 103.831053,16.1684226 L103.831053,16.1684226 L98.3548921,16.1684226 L98.3548921,21.2472897 L104.53114,21.2472897 C105.332565,21.2472897 105.92814,21.4851288 106.316643,21.9615397 C106.70539,22.4421017 106.900497,22.9712572 106.900497,23.5519364 C106.900497,24.1260224 106.702704,24.6568872 106.30248,25.13574 C105.901035,25.6116625 105.307902,25.8492574 104.53114,25.8492574 L104.53114,25.8492574 L95.9169187,25.8492574 C95.1816686,25.8492574 94.5675356,25.6255812 94.0801363,25.1687054 C93.5895625,24.7140272 93.3441536,24.1045339 93.3441536,23.3499929 L93.3441536,23.3499929 L93.3441536,4.98314531 C93.3441536,4.13776632 93.5565972,3.44280716 93.9792867,2.8948492 C94.4027087,2.35665877 95.0600629,2.0782844 95.9496399,2.0782844 L95.9496399,2.0782844 Z M43.6204606,12.0735357 C47.1326172,12.6346798 48.0883692,17.1736471 45.2655554,19.0861278 C45.2516367,19.0939419 45.2369854,19.1049303 45.2235551,19.1139653 L45.225997,19.1168955 C45.2096364,19.1271514 45.1905897,19.1398492 45.1734965,19.1501051 L44.5315262,19.5207825 L44.4602233,19.5598526 L40.5373424,21.8210339 L36.7089624,15.1796076 L40.6762854,12.8922982 L40.725123,12.8639724 C40.9619854,12.7267387 41.1856617,12.6031796 41.4061635,12.4910973 L41.4098263,12.4950043 C41.427652,12.4852368 41.4457219,12.4781553 41.4623267,12.4700971 C42.1260298,12.1499666 42.7650699,11.9780582 43.6204606,12.0735357 Z M119.310621,6.89000971 L119.240539,6.89000971 L116.070979,16.5710887 L115.913477,17.0733835 C116.929055,17.3737348 117.983703,17.5327012 119.07498,17.5327012 C120.279071,17.5327012 121.43579,17.3351531 122.544159,16.9732664 L122.544159,16.9732664 L122.413763,16.5710887 L119.310621,6.89000971 Z" id="Combined-Shape"></path>
        </g>
    </g>
</svg>