<?xml version="1.0" encoding="UTF-8"?>
<svg width="200px" height="105px" viewBox="0 0 200 105" version="1.1" xmlns="http://www.w3.org/2000/svg" xmlns:xlink="http://www.w3.org/1999/xlink">
    <title>logo-2</title>
    <g id="logo-2" stroke="none" stroke-width="1" fill="none" fill-rule="evenodd">
        <g id="webjar" transform="translate(39.000000, 17.000000)" fill-rule="nonzero">
            <path d="M73.2169756,36.8688293 L60.6457561,29.5583171 L48.0753659,36.8688293 L35.5030244,29.5577561 L35.5030244,29.5669756 L22.9337561,22.2589756 L22.9337561,7.35717073 L35.5030244,0.0553170732 L48.0753659,7.35717073 L60.6446341,0.0553170732 L73.2169756,7.35717073 L60.6446341,14.6590244 L48.0753659,21.9578049 L60.6437561,14.6603171 L60.6446341,14.6590244 L60.6457561,14.6593171 L60.6477073,14.6590244 L60.6467561,14.6603171 L73.2169756,21.9578049 L60.6477073,14.6590244 L73.2169756,7.35717073 L85.7893171,0.0553170732 L98.3585854,7.35717073 L98.3585854,22.2589756 L85.7893171,29.5669756 L85.7893171,29.5577561 L73.2169756,36.8688293 Z" id="Combined-Shape" fill="#E8E8E8"></path>
            <polygon id="Path" fill="#ACACAC" points="48.0753659 7.35717073 35.5030244 14.6590244 22.9337561 7.35717073 35.5030244 0.0553170732"></polygon>
            <polygon id="Path" fill="#ACACAC" points="98.3585854 7.35717073 85.7893171 14.6590244 73.2169756 7.35717073 85.7893171 0.0553170732"></polygon>
            <polygon id="Path" fill="#E8E8E8" points="60.6446341 14.6590244 48.0753659 21.9578049 35.5030244 14.6590244 48.0753659 7.35717073"></polygon>
            <polygon id="Path" fill="#E8E8E8" points="85.7893171 14.6590244 73.2169756 21.9578049 60.6477073 14.6590244 73.2169756 7.35717073"></polygon>
            <polygon id="Path" fill="#5F5F5F" points="73.2169756 7.35717073 60.6446341 14.6590244 48.0753659 7.35717073 60.6446341 0.0553170732"></polygon>
            <polygon id="Path" fill="#E8E8E8" points="35.5030244 29.5669756 22.9337561 22.2589756 22.9337561 7.35717073 35.5030244 14.6590244"></polygon>
            <polygon id="Path" fill="#5F5F5F" points="48.0753659 36.8688293 35.5030244 29.5577561 35.5030244 14.6590244 48.0753659 21.9578049"></polygon>
            <polygon id="Path" fill="#E8E8E8" points="73.2169756 36.8688293 60.6446341 29.5577561 60.6446341 14.6590244 73.2169756 21.9578049"></polygon>
            <polygon id="Path" fill="#232323" points="48.0753659 36.8688293 60.6477073 29.5577561 60.6477073 14.6590244 48.0753659 21.9578049"></polygon>
            <polygon id="Path" fill="#5F5F5F" points="73.2169756 36.8688293 85.7893171 29.5577561 85.7893171 14.6590244 73.2169756 21.9578049"></polygon>
            <polygon id="Path" fill="#232323" points="85.7893171 29.5669756 98.3585854 22.2589756 98.3585854 7.35717073 85.7893171 14.6590244"></polygon>
            <path d="M77.8323123,49.9220666 L78.0270026,49.99147 L79.7220701,49.99147 L79.7220701,63.8110567 C79.7220701,63.8611714 79.7161213,63.9102045 79.7161213,63.9615812 C79.7143186,64.0843442 79.7035025,64.2063862 79.7015195,64.3291492 C79.7015195,64.3350981 79.6984549,64.3419483 79.6984549,64.3478972 C79.6730371,65.1149409 79.6090415,65.8690053 79.4754624,66.5976519 C79.3072716,67.4993564 78.9925224,68.2968656 78.5205786,68.9880162 C78.0526007,69.6851157 77.3820007,70.240704 76.5129248,70.662533 C75.9728396,70.9230214 75.3190047,71.0913926 74.575576,71.1916221 C74.1175131,71.2534543 73.6297058,71.2938344 73.0928652,71.2938344 C72.3721505,71.2938344 71.7094823,71.204421 71.0879156,71.0529953 C70.6839331,70.9556501 70.293471,70.8336081 69.9296886,70.6724478 C69.5776236,70.5141719 69.2394393,70.335165 68.9257715,70.1197437 C67.792061,69.337918 67.0592683,68.1158757 66.7241487,66.4512736 L66.7241487,66.4512736 L70.5314257,65.5209063 L70.921888,65.4244625 C70.9806556,65.9330008 71.2088759,66.3645643 71.611957,66.7157279 C72.0132353,67.0677929 72.4664312,67.2437352 72.9749693,67.2437352 C73.503878,67.2437352 73.9147106,67.1119587 74.2069265,66.8473241 C74.5029277,66.5839514 74.716366,66.2555016 74.853911,65.866121 C74.9914563,65.4727745 75.0741996,65.0500442 75.1016005,64.5896377 C75.1253959,64.252535 75.1351305,63.9437345 75.1399978,63.6448489 C75.1450452,63.5327217 75.1461269,63.4177102 75.1461269,63.3126135 L75.1461269,49.99147 L77.8243804,49.99147 L77.8323123,49.9220666 Z M45.7526317,49.991416 L45.7526317,54.2160153 L36.2167724,54.2160153 L36.2167724,58.0903524 L45.2235427,58.0903524 L45.2235427,62.314411 L36.2167724,62.314411 L36.2167724,66.5404526 L46.280639,66.5404526 L46.280639,70.7648717 L31.6404687,70.7648717 L31.6404687,49.991416 L45.7526317,49.991416 Z M5.41579245,49.99147 L5.88683489,51.8797857 L7.46346584,58.2117274 L7.65905748,59.0004034 L8.73291873,63.3126135 L8.79042448,63.3126135 L10.0047152,59.58826 L10.1415392,59.1714785 L12.2953909,52.5608413 L13.1325591,49.99147 L17.3892463,49.99147 L18.4030781,53.2092682 L20.5102401,59.8851627 L20.7231377,60.5627931 L21.7010959,63.6644982 L21.760945,63.6644982 L22.6851833,60.0351464 L22.7873956,59.6425209 L24.2702868,53.8317363 L24.5924272,52.5734601 L25.2525716,49.99147 L29.8892655,49.99147 L28.6297274,54.2948469 L28.4959679,54.7584982 L27.7089142,57.4466666 L26.8675999,60.3228554 L25.6935092,64.3399654 L24.7476387,67.5720047 L23.8145674,70.7647456 L19.7368871,70.7647456 L19.449178,69.8670068 L17.7151724,64.4187428 L17.4635172,63.6261009 L17.0142873,62.2160383 L16.1767586,59.5868179 L15.1586003,56.3881282 L15.098751,56.3881282 L14.1252994,59.4453068 L13.4817399,61.4713479 L12.6189733,64.178805 L12.5254139,64.4728235 L10.5224473,70.7647456 L6.58988317,70.7647456 L5.56920124,67.323414 L4.74717552,64.5494377 L3.00631969,58.6802461 L1.98798134,55.2459451 L0.829213503,51.343486 L0.428656127,49.99147 L5.41579245,49.99147 Z M111.949319,49.9915241 C113.007497,49.9915241 114.007267,50.0946379 114.958185,50.299243 C115.906039,50.5056507 116.736898,50.8468996 117.450942,51.3262343 C118.16661,51.8055691 118.733916,52.4511116 119.15286,53.2628621 C119.261021,53.472695 119.355302,53.6983915 119.437144,53.9349042 C119.667167,54.6132557 119.785063,55.4013909 119.785063,56.2996703 C119.785063,57.7666978 119.401631,59.0130763 118.639635,60.0406085 C118.152008,60.6978686 117.503941,61.183693 116.726983,61.5312512 C116.289651,61.7284653 115.820411,61.8916086 115.295468,61.9929196 L115.295468,61.9929196 L116.477491,63.9585707 L118.069264,66.6005902 L119.631834,69.1953794 L120.576803,70.7647996 L115.087979,70.7647996 L112.719247,66.2317602 L112.491027,65.7971322 L111.422393,63.7519826 L110.747647,62.4610777 L108.488158,62.4610777 L108.488158,70.7647996 L103.90915,70.7647996 L103.90915,49.9915241 L111.949319,49.9915241 Z M93.1892132,49.9915241 L93.2788069,50.1948673 L95.7124358,55.7904109 L96.0349365,56.5332987 L96.8784143,58.4746134 L98.1489489,61.3906416 L99.8697949,65.3479023 L102.226629,70.7647996 L97.0624688,70.7647996 L96.962059,70.5190932 L95.3171062,66.4725994 L95.2727601,66.3646184 L87.2048298,66.3646184 L86.97697,66.9396758 L85.4735282,70.7647996 L80.4252807,70.7647996 L82.7379491,65.4187479 L83.2619907,64.204277 L85.2274613,59.6542925 L87.8608279,53.5642715 L88.5157446,52.0492925 L89.4055512,49.9915241 L93.1892132,49.9915241 Z M57.3101152,49.991452 C58.2089354,49.991452 59.1155072,50.0554474 60.0240621,50.1821764 C60.2176707,50.2088562 60.4074937,50.2450902 60.5931706,50.2843888 C61.2765698,50.4271617 61.9051671,50.645287 62.4742755,50.9447134 C63.1989562,51.3261622 63.7841088,51.8595776 64.2342398,52.5444188 C64.3661968,52.745058 64.472375,52.9727375 64.5666555,53.2126752 C64.79091,53.7889946 64.9089861,54.4727542 64.9089861,55.2735082 C64.9089861,56.4466976 64.5814377,57.4201491 63.9276026,58.1924206 C63.8196216,58.3204115 63.694515,58.43344 63.5766193,58.5495331 C62.9710964,59.1330632 62.2276678,59.5729191 61.3297491,59.849812 L61.3297491,59.849812 L61.3297491,59.9098415 C62.017114,60.0066459 62.6365175,60.1973703 63.1940889,60.4805725 C63.6817161,60.729704 64.1006607,61.0484193 64.4666064,61.4181506 C64.5196053,61.4702483 64.5814377,61.5115298 64.6308312,61.5670526 C65.0014639,61.9731982 65.2846662,62.4482065 65.4950398,62.9801798 C65.5127063,63.0254272 65.5383044,63.0618415 65.5550695,63.107089 C65.7703105,63.6949456 65.878652,64.3193967 65.878652,64.9860307 C65.878652,66.0804426 65.6424998,66.9938646 65.1743418,67.7273784 C64.7043809,68.4628751 64.0977765,69.0548779 63.3543478,69.504288 C62.6110996,69.9535179 61.7751932,70.276199 60.8441048,70.4708893 C60.3997422,70.5651699 59.9541177,70.6360155 59.5117382,70.6821643 C59.0287979,70.7362449 58.550004,70.7647275 58.0731931,70.7647275 L58.0731931,70.7647275 L49.5637844,70.7647275 L49.5637844,49.991452 L57.3101152,49.991452 Z M57.6228815,62.1687899 L54.1429726,62.1687899 L54.1429726,66.8916522 L58.2491354,66.8916522 C58.3868608,66.8916522 58.5245862,66.8817375 58.6651958,66.8691186 C58.8804368,66.8503707 59.0996437,66.8217079 59.3201123,66.7755591 C59.6810105,66.6969619 60.0101812,66.5592366 60.3041998,66.3645462 C60.5983984,66.167873 60.8361729,65.9142348 61.0231117,65.6005671 C61.2069858,65.287981 61.3012665,64.9074335 61.3012665,64.4569418 C61.3012665,63.9673317 61.1794049,63.5711009 60.9335181,63.2682493 C60.8293227,63.1404387 60.7083624,63.0313761 60.5825349,62.9289834 C60.4251601,62.8011728 60.2531837,62.6930116 60.0583131,62.6075641 C60.0417284,62.5996323 60.0289292,62.5868332 60.0101812,62.5780001 C59.6395486,62.4226083 59.2364675,62.3144471 58.8056251,62.2564005 C58.3837963,62.1974526 57.9906299,62.1718544 57.6228815,62.1687899 L57.6228815,62.1687899 Z M91.1626313,56.0366581 L90.5107795,57.7066683 L88.6404906,62.4913629 L93.7183022,62.4913629 L91.657289,57.2848393 L91.1626313,56.0366581 Z M111.479358,53.8645993 L108.488158,53.8645993 L108.488158,58.5889038 L111.187323,58.5889038 C111.598335,58.5889038 112.032783,58.5739415 112.491027,58.5450985 C112.953236,58.5144528 113.366232,58.4270225 113.739027,58.2810047 C113.820509,58.2490971 113.889372,58.1968192 113.966166,58.1560784 C114.231522,58.0136661 114.472541,57.8355605 114.664167,57.5907555 C114.908972,57.2785299 115.029932,56.8384938 115.029932,56.270647 C115.029932,55.7426397 114.924655,55.3227937 114.709415,55.0085852 C114.491109,54.6963596 114.218723,54.4560613 113.886487,54.2898534 C113.554072,54.1236456 113.173344,54.0115184 112.74178,53.9531113 C112.310037,53.8936226 111.890191,53.8645993 111.479358,53.8645993 L111.479358,53.8645993 Z M57.2520688,53.8645272 L54.1429726,53.8645272 L54.1429726,58.2958949 L57.4566738,58.2958949 C57.8087388,58.2958949 58.1568378,58.2564161 58.4989879,58.1778189 C58.8402368,58.0990414 59.1490372,57.9732138 59.4232262,57.7963701 C59.64045,57.6566618 59.8156713,57.4682809 59.9651142,57.2539412 C60.0033311,57.1998606 60.0485785,57.1526302 60.0840916,57.0922401 C60.2481361,56.7991231 60.3326822,56.4466976 60.3326822,56.036586 C60.3326822,55.6061041 60.2403846,55.2486311 60.0545275,54.9647077 C59.8666874,54.6816857 59.6278312,54.461938 59.3338128,54.3045634 C59.0417772,54.1488111 58.7073787,54.0363234 58.3367461,53.9667396 C57.9650318,53.8994994 57.6041335,53.8645272 57.2520688,53.8645272 L57.2520688,53.8645272 Z" id="Shape" fill="#232323"></path>
        </g>
    </g>
</svg>