<?xml version="1.0" encoding="UTF-8"?>
<svg width="32px" height="34px" viewBox="0 0 32 34" version="1.1" xmlns="http://www.w3.org/2000/svg" xmlns:xlink="http://www.w3.org/1999/xlink">
    <title>Combined Shape</title>
    <g id="Page-1" stroke="none" stroke-width="1" fill="none" fill-rule="evenodd">
        <g id="Homepage-test" transform="translate(-1017.000000, -5407.000000)" fill="#303644" fill-rule="nonzero">
            <g id="Group" transform="translate(0.000000, 4870.000000)">
                <g id="Group-36" transform="translate(547.000000, 232.000000)">
                    <g id="Group-69" transform="translate(60.000000, 294.000000)">
                        <g id="Group-15-Copy-6" transform="translate(392.000000, 0.000000)">
                            <path d="M41.0440252,11 C41.505732,11 41.8867439,11.3354439 41.9426292,11.7690115 L41.9496855,11.8793103 L41.949,13.931 L47.081761,13.9310345 C48.6358992,13.9310345 49.9062865,15.11057 49.9950461,16.597888 L50,16.7643678 L50,42.1666667 C50,43.7314735 48.6934599,45 47.081761,45 L47.081761,45 L20.918239,45 C19.3065401,45 18,43.7314735 18,42.1666667 L18,42.1666667 L18,16.7643678 C18,15.199561 19.3065401,13.9310345 20.918239,13.9310345 L20.918239,13.9310345 L26.05,13.931 L26.0503145,11.8793103 C26.0503145,11.3936807 26.4557924,11 26.9559748,11 C27.4176817,11 27.7986936,11.3354439 27.8545788,11.7690115 L27.8616352,11.8793103 L27.861,13.931 L40.138,13.931 L40.1383648,11.8793103 C40.1383648,11.3936807 40.5438427,11 41.0440252,11 Z M26.05,15.689 L20.918239,15.6896552 C20.3069049,15.6896552 19.8113208,16.1708204 19.8113208,16.7643678 L19.8113208,16.7643678 L19.8113208,42.1666667 C19.8113208,42.7602141 20.3069049,43.2413793 20.918239,43.2413793 L20.918239,43.2413793 L47.081761,43.2413793 C47.6930951,43.2413793 48.1886792,42.7602141 48.1886792,42.1666667 L48.1886792,42.1666667 L48.1886792,16.7643678 C48.1886792,16.1708204 47.6930951,15.6896552 47.081761,15.6896552 L47.081761,15.6896552 L41.949,15.689 L41.9496855,17.7413793 C41.9496855,18.227009 41.5442076,18.6206897 41.0440252,18.6206897 C40.5823183,18.6206897 40.2013064,18.2852458 40.1454212,17.8516781 L40.1383648,17.7413793 L40.138,15.689 L27.861,15.689 L27.8616352,17.7413793 C27.8616352,18.227009 27.4561573,18.6206897 26.9559748,18.6206897 C26.494268,18.6206897 26.1132561,18.2852458 26.0573708,17.8516781 L26.0503145,17.7413793 L26.05,15.689 Z M38.956308,25.7398291 C39.1920963,25.9756174 39.1976576,26.3523444 38.9687296,26.5812724 C38.7398015,26.8102004 38.3630746,26.8046391 38.1272863,26.5688509 C36.2016822,24.6432468 33.1250785,24.5978295 31.2554996,26.4674084 C29.3859207,28.3369874 29.431338,31.4135911 31.3569421,33.3391951 C33.2825461,35.2647992 36.3591498,35.3102165 38.2287288,33.4406376 C38.4576568,33.2117095 38.8343838,33.2172708 39.070172,33.4530591 C39.3059603,33.6888473 39.3115216,34.0655743 39.0825935,34.2945023 C36.7551585,36.6219374 32.9251009,36.5653974 30.5279203,34.1682169 C28.1307398,31.7710363 28.0741998,27.9409786 30.4016348,25.6135436 C32.7290698,23.2861086 36.5591275,23.3426486 38.956308,25.7398291 Z" id="Combined-Shape"></path>
                        </g>
                    </g>
                </g>
            </g>
        </g>
    </g>
</svg>