<?xml version="1.0" encoding="UTF-8"?>
<svg width="209px" height="66px" viewBox="0 0 209 66" version="1.1" xmlns="http://www.w3.org/2000/svg" xmlns:xlink="http://www.w3.org/1999/xlink">
    <title>up-cheque</title>
    <g id="up-cheque" stroke="none" stroke-width="1" fill="none" fill-rule="evenodd">
        <g id="Group-36" transform="translate(29.000000, 4.000000)">
            <polygon id="Fill-1" fill="#F59100" points="0 23.0284744 21.5054947 23.0284744 21.5054947 1.52282792 0 1.52282792"></polygon>
            <g id="Group-35" transform="translate(3.725498, 0.000000)">
                <path d="M9.1686798,8.22474559 L9.1686798,9.23559428 C9.7246314,8.84897728 10.3798167,8.63169488 11.0988819,8.63169488 C13.0337877,8.63169488 14.602257,10.2641958 14.602257,12.278003 C14.602257,14.2918102 13.0337877,15.9243111 11.0988819,15.9243111 C10.3834583,15.9243111 9.71825859,15.7006559 9.16397606,15.3175288 L9.16397606,15.3175288 L9.16397606,17.7492101 L7.44680785,18.1429586 L7.44680785,8.64125409 L9.1686798,8.22474559 Z M6.59782848,6.041012 L6.59782848,12.9105952 C6.59782848,14.5872506 5.32721202,15.9255402 3.24482124,15.9255402 C1.64949505,15.9255402 2.6260254e-14,15.0196911 2.6260254e-14,12.6537104 L2.6260254e-14,12.6537104 L2.6260254e-14,6.43445701 L1.78484135,6.041012 L1.78484135,12.3968255 C1.78484135,13.2079929 1.9335402,14.2085237 3.32615041,14.2085237 C4.56991004,14.2085237 4.8132906,13.3568435 4.8132906,12.2481267 L4.8132906,12.2481267 L4.8132906,6.43445701 L6.59782848,6.041012 Z M10.9890268,10.1930328 C9.83994887,10.1930328 9.00162119,11.1530507 9.00162119,12.2752718 C9.00162119,13.3973412 9.83994887,14.3573591 10.9890268,14.3573591 C12.1382564,14.3573591 12.9767359,13.3973412 12.9767359,12.2752718 C12.9767359,11.1530507 12.1382564,10.1930328 10.9890268,10.1930328 Z" id="Combined-Shape" fill="#FFFFFF"></path>
                <path d="M65.6665939,35.5657444 L65.6665939,52.4853971 C65.6665939,55.869358 63.5046947,58 59.9641448,58 C59.4628173,58 58.9928986,57.9685912 58.5540853,57.9373341 L57.3321753,54.4594501 C57.645505,54.4907072 57.9588347,54.5533732 58.4915711,54.5533732 C60.2146569,54.5533732 61.6873824,53.7074588 61.6873824,51.7648146 L61.6873824,35.9418918 L65.6665939,35.5657444 Z M100.006802,35.440625 L100.006802,51.8587984 L96.2468453,52.1094621 L96.2468453,50.041486 L96.1843311,50.041486 C94.8369375,51.8587984 93.5209527,52.3601259 91.2963876,52.3601259 C88.0063498,52.3601259 85.8131935,50.2608927 85.8131935,46.8769318 L85.8131935,35.9419525 L89.792405,35.440625 L89.792405,45.8116108 C89.792405,47.5035912 90.5756534,48.9134991 92.3615569,48.9134991 C94.8683463,48.9134991 96.0274387,47.0022637 96.0274387,44.9969536 L96.0274387,35.9419525 L100.006802,35.440625 Z M52.4441407,35.4406401 C55.7341786,35.4406401 58.6168119,37.4145415 60.0267197,40.3598407 L49.1228458,47.1276108 C49.4363273,47.7855273 50.3134987,48.7256682 52.2248858,48.7256682 C54.2614531,48.7256682 55.7654357,47.9421163 57.4260073,46.8455382 L59.1179877,50.2609079 C57.1754952,51.6081498 54.7940377,52.3601411 52.4441407,52.3601411 C47.7441951,52.3601411 43.6083946,48.6942593 43.6083946,43.9003906 C43.6083946,39.1065219 47.7441951,35.4406401 52.4441407,35.4406401 Z M76.4444986,35.440625 C79.7345365,35.440625 82.6171698,37.4145263 84.0270776,40.3598256 L73.1233554,47.1275956 C73.4366851,47.7855121 74.3138566,48.725653 76.2252437,48.725653 C78.2619627,48.725653 79.7657936,47.9421011 81.4263652,46.845523 L83.1184973,50.2608927 C81.1758531,51.6081346 78.7945473,52.3601259 76.4444986,52.3601259 C71.7447047,52.3601259 67.6089042,48.6942441 67.6089042,43.9003754 C67.6089042,39.1065067 71.7447047,35.440625 76.4444986,35.440625 Z M128.143689,35.440625 C131.433726,35.440625 134.31636,37.4145263 135.726268,40.3598256 L124.822545,47.1275956 C125.135875,47.7855121 126.013046,48.725653 127.924434,48.725653 C129.961153,48.725653 131.464983,47.9421011 133.125555,46.845523 L134.817687,50.2608927 C132.875043,51.6081346 130.493737,52.3601259 128.143689,52.3601259 C123.443895,52.3601259 119.308094,48.6942441 119.308094,43.9003754 C119.308094,39.1065067 123.443895,35.440625 128.143689,35.440625 Z M111.756787,35.4405643 C115.046673,35.4405643 117.239981,37.5397975 117.239981,40.9237584 L117.239981,51.8587377 L113.260618,52.1095532 L113.260618,41.9890794 C113.260618,40.2970989 112.47737,38.8870394 110.691466,38.8870394 C108.184829,38.8870394 107.025585,40.7984265 107.025585,42.8037366 L107.025585,51.8587377 L103.046373,52.1095532 L103.046373,35.9418918 L106.806178,35.5657444 L106.806178,37.7592041 L106.868844,37.7592041 C108.216086,35.9418918 109.532071,35.4405643 111.756787,35.4405643 Z M147.037318,35.4406553 L145.658668,39.6705306 C142.619445,39.6705306 141.272203,41.456434 141.272203,44.2135838 L141.272203,51.8588287 L137.292992,52.1094925 L137.292992,35.9418311 L141.052948,35.5658355 L141.052948,38.4484688 L141.115614,38.4484688 C142.494265,35.97324 144.280169,35.4719124 147.037318,35.4406553 Z M32.3285857,30.3645926 C37.623782,30.3645926 42.2296529,35.0645383 42.2296529,40.9549851 C42.2296529,48.1615685 36.5897181,51.8588591 31.5139285,51.8588591 L25.8114795,51.8588591 L25.8114795,30.3645926 L32.3285857,30.3645926 Z M31.9525901,34.3439558 L29.9472799,34.3439558 L29.9472799,47.8794959 L32.1405879,47.8794959 C35.9316498,47.8794959 37.9057029,44.3703548 37.9057029,40.9549851 C37.9057029,37.2891034 35.3992169,34.3439558 31.9525901,34.3439558 Z M52.2248858,38.7619351 C49.7182481,38.7619351 47.712938,40.7983506 47.493683,43.2423223 C47.493683,43.5869092 47.493683,43.9316477 47.556349,44.3076434 L55.0134444,39.7958473 C54.2614531,39.043856 53.2902068,38.7619351 52.2248858,38.7619351 Z M127.924434,38.7619199 C125.417948,38.7619199 123.412637,40.7983354 123.193231,43.2423072 C123.193231,43.586894 123.193231,43.9316325 123.255897,44.3076282 L130.712992,39.7958321 C129.961153,39.0438408 128.989906,38.7619199 127.924434,38.7619199 Z M76.2252437,38.7619199 C73.7187577,38.7619199 71.7134476,40.7983354 71.4940409,43.2423072 C71.4940409,43.586894 71.4940409,43.9316325 71.5567069,44.3076282 L79.0138023,39.7958321 C78.2619627,39.0438408 77.2907164,38.7619199 76.2252437,38.7619199 Z M63.7553585,29.0173811 L66.449994,31.6806078 L63.7553585,34.3439862 L61.060723,31.6806078 L63.7553585,29.0173811 Z M57.4574161,28.8294591 L52.7887276,33.4039212 L49.6555822,33.4039212 L52.6008815,28.8294591 L57.4574161,28.8294591 Z M84.4754198,6.61119621 C86.6687278,6.61119621 87.7654577,7.17518969 89.4260293,8.83576129 L89.4260293,7.11252374 L93.1859858,6.86185998 L93.1859858,28.1679769 L89.2067743,28.6693044 L89.2067743,21.8388684 C87.7340488,23.0606267 86.0734772,23.5306971 84.5068287,23.5306971 C79.8697007,23.5306971 76.6110717,19.2068989 76.6110717,15.1650214 C76.6110717,10.6530736 79.9323666,6.61119621 84.4754198,6.61119621 Z M121.353902,6.61118103 C124.64394,6.61118103 127.526573,8.58508235 128.936481,11.5303816 L118.032759,18.2983034 C118.346088,18.9562199 119.22326,19.896209 121.134647,19.896209 C123.171366,19.896209 124.675197,19.1128089 126.335768,18.016079 L128.027901,21.4314488 C126.085256,22.7786906 123.703951,23.530682 121.353902,23.530682 C116.654108,23.530682 112.518308,19.8648002 112.518308,15.0709315 C112.518308,10.2770628 116.654108,6.61118103 121.353902,6.61118103 Z M67.9317021,6.61118103 C71.22174,6.61118103 74.1043733,8.58508235 75.5142811,11.5303816 L64.6105589,18.2983034 C64.9238886,18.9562199 65.8010601,19.896209 67.7124472,19.896209 C69.7491662,19.896209 71.2529971,19.1128089 72.9135687,18.016079 L74.6057008,21.4314488 C72.6630566,22.7786906 70.2817508,23.530682 67.9317021,23.530682 C63.2319082,23.530682 59.0961077,19.8648002 59.0961077,15.0709315 C59.0961077,10.2770628 63.2319082,6.61118103 67.9317021,6.61118103 Z M35.9409056,1.03392735 C36.9748177,1.03392735 38.541618,1.28459112 39.4187895,1.8173275 L40.1081148,6.79919403 C38.9801279,5.89046201 37.5388112,5.26380258 35.7529077,5.26380258 C31.9615424,5.26380258 29.3297245,8.64776346 29.3297245,12.2823881 C29.3297245,16.2930084 32.3376897,19.3008219 35.9409056,19.3008219 C37.6641431,19.3008219 39.0115367,18.4234987 40.1395237,17.5149184 L39.5755302,22.7160399 C38.6669499,23.2487763 37.0374837,23.5306971 36.0662374,23.5306971 C29.4237993,23.5306971 25.0059262,18.5488306 25.0059262,12.2823881 C25.0059262,6.07861157 29.5177223,1.03392735 35.9409056,1.03392735 Z M110.450195,6.61110517 L110.450195,23.0294303 L106.690238,23.2800941 L106.690238,21.212118 L106.627724,21.212118 C105.280331,23.0294303 103.964346,23.5307578 101.739781,23.5307578 C98.4497429,23.5307578 96.2565866,21.4315246 96.2565866,18.0475637 L96.2565866,7.11258444 L100.235798,6.61110517 L100.235798,16.9822427 C100.235798,18.6742232 101.019046,20.084131 102.80495,20.084131 C105.311739,20.084131 106.470832,18.1728956 106.470832,16.1675855 L106.470832,7.11258444 L110.450195,6.61110517 Z M46.8134617,1.0339577 L46.8134617,8.61638497 L46.8761276,8.61638497 C48.0039629,7.11255409 49.3199476,6.61122655 51.5446645,6.61122655 C54.8345506,6.61122655 57.0278585,8.71045975 57.0278585,12.0944206 L57.0278585,23.0293999 L53.0484953,23.2802154 L53.0484953,13.1595899 C53.0484953,11.4677612 52.2652469,10.0577016 50.4793434,10.0577016 C47.9727058,10.0577016 46.8134617,11.9690887 46.8134617,13.9742472 L46.8134617,23.0293999 L42.8342502,23.2802154 L42.8342502,1.53528524 L46.8134617,1.0339577 Z M84.9768991,10.2456691 C82.3135207,10.2456691 80.3710282,12.4703859 80.3710282,15.0709467 C80.3710282,17.6716591 82.3135207,19.8962242 84.9768991,19.8962242 C87.6401258,19.8962242 89.5826182,17.6716591 89.5826182,15.0709467 C89.5826182,12.4703859 87.6401258,10.2456691 84.9768991,10.2456691 Z M67.7124472,9.93247597 C65.2059612,9.93247597 63.2006511,11.9690432 62.9812444,14.4128632 C62.9812444,14.7576018 62.9812444,15.1021886 63.0439104,15.478336 L70.5010058,10.9663881 C69.7491662,10.2143968 68.7779199,9.93247597 67.7124472,9.93247597 Z M121.134647,9.93247597 C118.628161,9.93247597 116.622851,11.9690432 116.403444,14.4128632 C116.403444,14.7576018 116.403444,15.1021886 116.46611,15.478336 L123.923206,10.9663881 C123.171366,10.2143968 122.20012,9.93247597 121.134647,9.93247597 Z M67.3992692,0 L70.3444168,4.57461378 L67.2111197,4.57461378 L62.5425828,0 L67.3992692,0 Z" id="Combined-Shape" fill="#2C3334"></path>
                <g id="Group-12" transform="translate(59.096108, 0.000000)"></g>
            </g>
        </g>
    </g>
</svg>