<?xml version="1.0" encoding="UTF-8"?>
<svg width="209px" height="66px" viewBox="0 0 209 66" version="1.1" xmlns="http://www.w3.org/2000/svg" xmlns:xlink="http://www.w3.org/1999/xlink">
    <title>up-fit</title>
    <g id="up-fit" stroke="none" stroke-width="1" fill="none" fill-rule="evenodd">
        <g id="Logo-Up-Fit-CMYK" transform="translate(56.000000, 15.000000)">
            <polygon id="Fill-1" fill="#FF9E18" points="0 37.0485056 34.864271 37.0485056 34.864271 2.18423459 0 2.18423459"></polygon>
            <path d="M20.9033646,13.0489817 L20.9033646,14.6870883 C21.8048829,14.0600216 22.867446,13.7081464 24.0332406,13.7081464 C27.1708404,13.7081464 29.7130553,16.3550265 29.7130553,19.6201858 C29.7130553,22.8842812 27.1708404,25.5310226 24.0332406,25.5310226 C22.8737361,25.5310226 21.7951702,25.1680935 20.896057,24.5471781 L20.896057,24.5471781 L20.896057,28.4901411 L18.1115348,29.1284929 L18.1115348,13.7242879 L20.9033646,13.0489817 Z M16.7355771,9.5087697 L16.7355771,20.6451471 C16.7355771,23.3643633 14.6755256,25.5324564 11.3009373,25.5324564 C8.71344302,25.5324564 6.04089375,24.0653848 6.04089375,20.2295385 L6.04089375,20.2295385 L6.04089375,10.1456416 L8.9334575,9.5087697 L8.9334575,19.8126348 C8.9334575,21.1282817 9.17465479,22.749368 11.4326592,22.749368 C13.4484026,22.749368 13.8430134,21.3681839 13.8430134,19.5713913 L13.8430134,19.5713913 L13.8430134,10.1456416 L16.7355771,9.5087697 Z M23.855083,16.2405561 C21.9916893,16.2405561 20.6327981,17.7965215 20.6327981,19.6153294 C20.6327981,21.4343687 21.9916893,22.9913978 23.855083,22.9913978 C25.7181991,22.9913978 27.0774603,21.4343687 27.0774603,19.6153294 C27.0774603,17.7965215 25.7181991,16.2405561 23.855083,16.2405561 Z" id="Combined-Shape" fill="#FEFEFE"></path>
            <path d="M48.1936705,37.8615 L54.9020079,37.0485056 L54.9020079,23.0726602 L64.3037535,23.0726602 L64.3037535,16.6184242 L54.9020079,16.6184242 L54.9020079,8.63967318 L67.6072083,8.63967318 L66.1334304,2.18525211 L48.1936705,2.18525211 L48.1936705,37.8615 Z M69.7925529,37.4551878 L76.2468352,37.0485056 L76.2468352,10.621561 L69.7925529,11.2314688 L69.7925529,37.4551878 Z M73.1466059,0 L68.7761017,4.31990597 L73.1466059,8.63967318 L77.5172489,4.31990597 L73.1466059,0 Z M82.7011175,11.2314688 L80.1599202,11.2314688 L78.7368793,16.8217421 L82.7011175,16.8217421 L82.7011175,29.2221043 C82.7011175,34.9647274 86.6648933,37.8615 92.1027244,37.8615 C92.9158113,37.8615 94.0338753,37.8109018 94.6439217,37.6582745 L96.2192661,31.8646369 C95.5078844,31.9156514 94.69452,31.9663884 93.9831383,31.9663884 C90.222403,31.9663884 89.1552148,30.3401682 89.1552148,27.8498467 L89.1552148,16.8217421 L94.9995895,16.8217421 L94.9995895,11.2314688 L89.1552148,11.2314688 L89.1552148,3.86248675 L82.7011175,6.75935181 L82.7011175,11.2314688 Z" id="Fill-4" fill="#2C3334"></path>
        </g>
    </g>
</svg>