<?xml version="1.0" encoding="UTF-8"?>
<svg width="209px" height="66px" viewBox="0 0 209 66" version="1.1" xmlns="http://www.w3.org/2000/svg" xmlns:xlink="http://www.w3.org/1999/xlink">
    <title>UP-GIFT</title>
    <g id="UP-GIFT" stroke="none" stroke-width="1" fill="none" fill-rule="evenodd">
        <g id="Group-15" transform="translate(42.000000, 12.000000)">
            <polygon id="Fill-1" fill="#FF9E18" points="1.29563483e-12 43.8381418 43.8355643 43.8381418 43.8355643 -7.12259988e-14 1.29563483e-12 -7.12259988e-14"></polygon>
            <g id="Group-14" transform="translate(7.594350, 5.831597)">
                <path d="M18.6912661,7.83070665 L18.6912661,9.89013018 C19.8227891,9.10399229 21.1605123,8.66066206 22.624533,8.66066206 C26.56811,8.66066206 29.7642116,11.9882162 29.7642116,16.0915983 C29.7642116,20.1975578 26.56811,23.525112 22.624533,23.525112 C21.1656673,23.525112 19.8099016,23.0688942 18.6809561,22.2879114 L18.6809561,22.2879114 L18.6809561,27.2470238 L15.1781318,28.0486267 L15.1781318,8.67870457 L18.6912661,7.83070665 Z M13.4494017,3.37936193 L13.4494017,17.3803489 C13.4494017,20.8006931 10.8590129,23.5276895 6.61386829,23.5276895 C3.36106167,23.5276895 1.95045362e-12,21.6821986 1.95045362e-12,16.8596936 L1.95045362e-12,16.8596936 L1.95045362e-12,4.18096483 L3.63685431,3.37936193 L3.63685431,16.3338834 C3.63685431,17.9886392 3.94099946,20.0274427 6.77882838,20.0274427 C9.31508964,20.0274427 9.80996989,18.2902069 9.80996989,16.0323157 L9.80996989,16.0323157 L9.80996989,4.18096483 L13.4494017,3.37936193 Z M22.4002904,11.8438761 C20.0573417,11.8438761 18.3484584,13.8001996 18.3484584,16.0864433 C18.3484584,18.3752644 20.0573417,20.3315879 22.4002904,20.3315879 C24.7432391,20.3315879 26.4521224,18.3752644 26.4521224,16.0864433 C26.4521224,13.8001996 24.7432391,11.8438761 22.4002904,11.8438761 Z" id="Combined-Shape" fill="#FEFEFE"></path>
                <path d="M63.3359081,1.16683483 C68.4754456,1.16683483 72.1019899,3.02521326 75.0377639,5.65684207 L71.5426721,10.1494268 C69.0373409,8.29104838 67.0939049,6.65175756 63.1632155,6.65175756 C57.7221103,6.65175756 53.6625457,11.3582749 53.6625457,17.0597077 C53.6625457,23.0188907 58.8459008,26.6892525 63.3797256,26.6892525 C65.5370941,26.6892525 68.0424254,25.7819721 69.7693513,24.660759 L69.7693513,19.5624615 L61.134722,19.5624615 L62.9492829,14.0801163 L75.4707841,14.0801163 L75.4707841,27.7254081 C73.5711656,29.9265942 67.8259153,32.1741753 63.3797256,32.1741753 C54.7863363,32.1741753 47.7059403,25.3927694 47.7059403,16.6266875 C47.7059403,7.68791308 55.2193565,1.16683483 63.3359081,1.16683483 Z M101.794289,14.2950799 L96.2243089,14.2950799 L96.2243089,31.4818584 L90.7393862,31.8272436 L90.7393862,14.2950799 L87.282957,14.2950799 L88.4943826,9.544745 L90.7393862,9.544745 C90.8682613,6.43627846 92.337437,4.3201499 94.3246905,2.89479169 C96.4846366,1.34055842 98.7708802,1.16786583 102.010799,1.16786583 L103.954235,6.26358587 C102.786627,6.21976835 101.577779,6.17595083 100.412749,6.17595083 C97.8661773,6.17595083 96.353184,6.86672117 96.2243089,9.544745 L101.794289,9.544745 L101.79394,13.757 L102.869107,9.5442295 L105.026476,9.5442295 L105.026476,5.74499261 L110.511399,3.28347889 L110.511399,9.5442295 L115.478244,9.5442295 L115.478244,14.2945644 L110.511399,14.2945644 L110.511399,23.666359 C110.511399,25.7824876 111.418679,27.1640283 114.614781,27.1640283 C115.217916,27.1640283 115.911264,27.1202108 116.514399,27.0763932 L115.176676,32.0019982 C114.656021,32.1308733 113.7075,32.1721133 113.01673,32.1721133 C108.397847,32.1721133 105.026476,29.7105996 105.026476,24.8313896 L105.026476,14.2945644 L101.79394,14.294 L101.794289,14.2950799 Z M85.1743032,9.0264095 L85.1743032,31.4816007 L79.6893804,31.8269859 L79.6893804,9.54448725 L85.1743032,9.0264095 Z M82.5400969,-1.10009806e-13 L86.2542762,3.67293933 L82.5400969,7.34330116 L78.8259175,3.67293933 L82.5400969,-1.10009806e-13 Z" id="Combined-Shape" fill="#2C3334"></path>
            </g>
        </g>
    </g>
</svg>