<?xml version="1.0" encoding="UTF-8"?>
<svg width="209px" height="66px" viewBox="0 0 209 66" version="1.1" xmlns="http://www.w3.org/2000/svg" xmlns:xlink="http://www.w3.org/1999/xlink">
    <title>up-holidays</title>
    <g id="up-holidays" stroke="none" stroke-width="1" fill="none" fill-rule="evenodd">
        <g id="Group-23" transform="translate(13.000000, 12.000000)">
            <polygon id="Fill-1" fill="#FF9E18" points="0 42.008 42.0055301 42.008 42.0055301 0 0 0"></polygon>
            <g id="Group-22" transform="translate(7.277303, 7.628028)">
                <path d="M17.9109486,5.46390508 L17.9109486,7.4373524 C18.9952332,6.68403396 20.2771095,6.25921176 21.6800107,6.25921176 C25.4589524,6.25921176 28.521624,9.44784817 28.521624,13.3799234 C28.521624,17.3144686 25.4589524,20.503105 21.6800107,20.503105 C20.2820492,20.503105 18.9828837,20.0659333 17.901069,19.3175547 L17.901069,19.3175547 L17.901069,24.0696356 L14.5444796,24.8377734 L14.5444796,6.27650103 L17.9109486,5.46390508 Z M12.88792,1.19839379 L12.88792,14.6148717 C12.88792,17.8924244 10.405674,20.5055749 6.33775447,20.5055749 C3.22074506,20.5055749 1.86888364e-12,18.737129 1.86888364e-12,14.1159526 L1.86888364e-12,14.1159526 L1.86888364e-12,1.96653161 L3.48502399,1.19839379 L3.4858347,13.7529021 C3.50426824,15.3110001 3.85645284,17.1514554 6.49582785,17.1514554 C8.92620602,17.1514554 9.40042615,15.4867452 9.40042615,13.3231158 L9.40042615,13.3231158 L9.40042615,1.96653161 L12.88792,1.19839379 Z M21.4651297,9.30953396 C19.2199937,9.30953396 17.5824524,11.1841854 17.5824524,13.3749836 C17.5824524,15.5682517 19.2199937,17.4429032 21.4651297,17.4429032 C23.7102656,17.4429032 25.347807,15.5682517 25.347807,13.3749836 C25.347807,11.1841854 23.7102656,9.30953396 21.4651297,9.30953396 Z" id="Combined-Shape" fill="#FEFEFE"></path>
                <path d="M156.760133,7.17924821 L161.065163,8.08817013 L150.454487,31.6929712 L146.080301,31.0631476 L149.718458,23.3224919 L141.980272,8.08817013 L146.359399,7.17924821 L151.995703,18.5605314 L156.760133,7.17924821 Z M167.942096,7.17900122 C170.46139,7.17900122 172.84237,8.19412869 174.5219,10.0860694 L171.617302,12.6769909 C170.742958,11.7310205 169.621625,10.8912557 168.255773,10.8912557 C166.959077,10.8912557 166.119312,11.3802952 166.119312,12.746148 C166.119312,15.6532162 174.909674,13.6575398 174.909674,20.2052355 C174.909674,24.2682152 171.231998,26.0909989 167.625949,26.0909989 C165.138763,26.0909989 162.58242,25.1450285 160.934999,23.2185092 L163.703753,20.4868037 C164.859665,21.7118723 166.015576,22.3762745 167.729685,22.3762745 C169.164695,22.3762745 170.21687,21.4673526 170.21687,20.5559608 C170.21687,17.3697943 161.424039,19.4346278 161.424039,12.6424123 C161.424039,8.99931496 164.647254,7.17900122 167.942096,7.17900122 Z M77.5732749,7.17776627 C82.8267448,7.17776627 87.4479212,11.2753246 87.4479212,16.6325302 C87.4479212,21.9922056 82.8267448,26.0897639 77.5732749,26.0897639 C72.3222749,26.0897639 67.6986286,21.9922056 67.6986286,16.6325302 C67.6986286,11.2753246 72.3222749,7.17776627 77.5732749,7.17776627 Z M123.397018,0.94374746 L123.397018,25.5290974 L119.195724,25.9489798 L119.195724,23.6025781 C117.340832,25.4599403 116.115763,26.0897639 113.660686,26.0897639 C108.585049,26.0897639 104.872794,21.5698533 104.872794,16.6325302 C104.872794,11.695207 108.585049,7.17776627 113.660686,7.17776627 C115.446421,7.17776627 117.303783,7.70385423 118.948734,9.06970701 L118.948734,1.50441397 L123.397018,0.94374746 Z M134.441654,7.17924821 C137.630291,7.17924821 141.132604,8.57967954 141.132604,12.1881984 L141.132604,25.5281095 L137.067154,25.9504618 L137.067154,24.4092463 C135.842086,25.4589524 134.268762,26.088776 132.621341,26.088776 C128.837459,26.088776 125.895812,23.8831584 125.895812,19.8201786 C125.895812,16.5994335 128.592939,13.7615224 131.91989,13.7615224 C133.846409,13.7615224 135.106056,14.0776692 136.822635,14.9520126 C136.854743,14.5667087 136.92884,14.2159834 136.92884,13.7615224 C136.92884,11.3459636 135.177683,10.8915027 133.11038,10.8915027 C131.359223,10.8915027 129.679694,11.3113851 128.069321,11.9412087 L129.29439,7.66828772 C130.97639,7.35214097 132.725076,7.17924821 134.441654,7.17924821 Z M64.6399088,0.944735419 L64.6399088,25.5300854 L60.0162625,25.8091837 L60.0162625,15.3392923 L50.2824003,15.3392923 L50.2824003,25.5300854 L45.658754,25.8091837 L45.658754,1.50540193 L50.2824003,0.944735419 L50.2824003,10.8910087 L60.0162625,10.8910087 L60.0162625,1.50540193 L64.6399088,0.944735419 Z M94.3952461,0.944488429 L94.3952461,25.5298384 L89.9494324,25.8089367 L89.9494324,1.50515494 L94.3952461,0.944488429 Z M102.173938,7.32077328 L102.173938,25.5288504 L97.7281245,25.8079487 L97.7281245,7.73818579 L102.173938,7.32077328 Z M133.59942,17.2638357 C132.026096,17.2638357 130.344096,18.2443846 130.344096,19.8201786 C130.344096,21.4305511 132.026096,22.3765215 133.59942,22.3765215 C135.177683,22.3765215 136.854743,21.4305511 136.854743,19.8201786 C136.854743,18.2443846 135.177683,17.2638357 133.59942,17.2638357 Z M77.5732749,11.240746 C74.5624711,11.240746 71.8999226,13.5871477 71.8999226,16.6325302 C71.8999226,19.6803825 74.5624711,22.0267841 77.5732749,22.0267841 C80.5865487,22.0267841 83.2490971,19.6803825 83.2490971,16.6325302 C83.2490971,13.5871477 80.5865487,11.240746 77.5732749,11.240746 Z M114.223822,11.240746 C111.247597,11.240746 109.074088,13.7279318 109.074088,16.6325302 C109.074088,19.5420683 111.247597,22.0267841 114.223822,22.0267841 C117.197578,22.0267841 119.371087,19.5420683 119.371087,16.6325302 C119.371087,13.7279318 117.197578,11.240746 114.223822,11.240746 Z M100.039948,1.2994844e-12 L103.048282,2.97622531 L100.039948,5.95245061 L97.0266739,2.97622531 L100.039948,1.2994844e-12 Z" id="Combined-Shape" fill="#2C3334"></path>
            </g>
        </g>
    </g>
</svg>